<svg id="Calque_1" data-name="Calque 1" xmlns="http://www.w3.org/2000/svg" viewBox="0 0 500 500"><defs><style>.cls-1,.cls-16,.cls-19{fill:#fff;}.cls-2{fill:#ebebeb;}.cls-3{fill:#f5f5f5;}.cls-4{fill:#e0e0e0;}.cls-5{fill:#c53f3f;}.cls-6{opacity:0.3;}.cls-7{fill:#263238;}.cls-8{fill:#455a64;}.cls-9{fill:#fafafa;}.cls-10{fill:none;}.cls-11{opacity:0.4;}.cls-12{opacity:0.5;}.cls-13{fill:#ffbe9d;}.cls-14{fill:#eb996e;}.cls-15{opacity:0.6;}.cls-16,.cls-19{font-size:14px;}.cls-16{font-family:Montserrat-SemiBold, Montserrat;font-weight:600;}.cls-17{letter-spacing:0em;}.cls-18{letter-spacing:-0.01em;}.cls-19{font-family:Montserrat-ExtraBold, Montserrat;font-weight:800;}.cls-20{letter-spacing:-0.02em;}.cls-21{letter-spacing:0em;}</style></defs><g id="freepik--background-complete--inject-4"><circle class="cls-1" cx="425.75" cy="143.5" r="44.03"/><path class="cls-2" d="M425.75,188a44.54,44.54,0,1,1,44.53-44.55v0A44.59,44.59,0,0,1,425.75,188Zm0-88.07a43.54,43.54,0,1,0,43.53,43.55h0A43.6,43.6,0,0,0,425.75,100Z"/><path class="cls-2" d="M446.59,140.35a3.09,3.09,0,0,0-4.18-1.27,3.19,3.19,0,0,0-.75.56,10.71,10.71,0,0,0-1.63,2.89c-1.1,2.57-2.11,5.19-3.2,7.77-.11.28-.47.46-.72.68-.15-.29-.43-.58-.44-.88-.07-1.54-.1-3.08-.1-4.62,0-3,0-6,.05-9.07V121.15a3.11,3.11,0,0,0-.52-1.62,3,3,0,0,0-3.35-.92,2.8,2.8,0,0,0-1.77,2.7v16.18a1.89,1.89,0,0,1,0,.75.78.78,0,0,1-.53.44c-.18,0-.43-.24-.52-.43a1.89,1.89,0,0,1,0-.75V118.71a11.61,11.61,0,0,0,0-1.18,2.18,2.18,0,0,0-1.8-2.06,2.88,2.88,0,0,0-3.91,3V137a4.43,4.43,0,0,1-.05,1.09.67.67,0,0,1-.47.44.73.73,0,0,1-.53-.4,3.37,3.37,0,0,1-.06-1V122.3a2.84,2.84,0,0,0-5.67,0v15.76a2.84,2.84,0,0,1,0,.92,2.45,2.45,0,0,1-.53.74c-.2-.25-.57-.5-.58-.75v-11.8a2.66,2.66,0,0,0-2.71-2.61h-.21a2.46,2.46,0,0,0-2.52,2.4v.17q-.17,5.94-.34,11.87h0c0,2.42,0,4.83-.13,7.24a36.45,36.45,0,0,0,1.87,14.17,13,13,0,0,0,9,8.53A18.76,18.76,0,0,0,434,167.49a12.56,12.56,0,0,0,6.45-6.93c2.16-5.92,4.2-11.88,6.21-17.86A3.51,3.51,0,0,0,446.59,140.35Z"/><path class="cls-2" d="M89.23,82.76l-1.27-6A20.12,20.12,0,0,0,48.71,85.6L50,91.71a11.25,11.25,0,0,0-6.91,13l8,35.27a11.25,11.25,0,0,0,13.46,8.5h0l36.62-8.28a11.26,11.26,0,0,0,8.5-13.46l-8-35.28A11.24,11.24,0,0,0,89.23,82.76Zm-5.84,40.66-9.58,2.16-.07-7.25a6,6,0,1,1,6.31-1.55C81.33,119.31,83.39,123.42,83.39,123.42ZM85,83.66l-30.78,7-1.26-6a15.78,15.78,0,0,1,30.78-7Z"/><path class="cls-3" d="M150.79,44.63,152,40.9a12.89,12.89,0,1,0-24.58-7.8l-1.27,3.8a7.21,7.21,0,0,0-8,4.94l-7,22.1A7.22,7.22,0,0,0,115.87,73h0l22.94,7.26a7.22,7.22,0,0,0,9.06-4.7l7-22.1A7.22,7.22,0,0,0,150.79,44.63ZM134.41,65.24l-6-1.9,2.31-4a3.84,3.84,0,1,1,5.42.41,3.93,3.93,0,0,1-1.42.77C134.59,62.31,134.41,65.24,134.41,65.24Zm13.74-21.48-19.29-6.1,1.23-3.7a10.12,10.12,0,0,1,19.3,6Z"/><path class="cls-2" d="M425.91,408.05a12,12,0,0,1,2,9.2A21.26,21.26,0,0,1,424,426c-3.63,5.09-9.76,8.86-15.49,11.36-2.35-6.53.46-14.08,2.13-17.82,2.63-5.91,11-15,15.26-11.51"/><path class="cls-2" d="M408.86,449.29a10.28,10.28,0,0,1,7.64-6.92,13.57,13.57,0,0,1,10.32,2.13c1.4.92,2.73,2.22,2.9,3.88a4.39,4.39,0,0,1-2.1,3.92,9,9,0,0,1-4.46,1.24c-5.34.29-10.56-.42-14.3-4.25"/><path class="cls-4" d="M396.48,458.85a23.13,23.13,0,0,1,6-6.16,43.42,43.42,0,0,1,4.69-2.89,20.49,20.49,0,0,1,9.7-2.37,14.45,14.45,0,0,1,3,.41,3.57,3.57,0,0,1,1.05.38c0,.12-1.56-.33-4.07-.29a22,22,0,0,0-9.39,2.5,49.68,49.68,0,0,0-4.64,2.8,20.65,20.65,0,0,0-3.44,2.75A30.22,30.22,0,0,1,396.48,458.85Z"/><path class="cls-4" d="M420.16,415.52a11.24,11.24,0,0,1-.83,1.92c-.57,1.22-1.43,3-2.5,5.12-2.15,4.3-5.18,10.2-8.69,16.64s-6.86,12.19-9.37,16.29c-1.25,2.05-2.28,3.7-3,4.82a10.72,10.72,0,0,1-1.2,1.71,13.21,13.21,0,0,1,1-1.85l2.83-4.93c2.39-4.17,5.66-9.94,9.17-16.37l8.87-16.54,2.7-5A12.36,12.36,0,0,1,420.16,415.52Z"/><path class="cls-3" d="M400.8,447.55a24,24,0,0,0-5.89-21.14c-1.32-1.41-3.26-2.75-5.06-2.05s-2.36,3-2.35,4.93a20.51,20.51,0,0,0,13,18.69"/><path class="cls-4" d="M394.07,432a6,6,0,0,1,.73.82c.43.56,1,1.39,1.72,2.45a26.72,26.72,0,0,1,3.89,9.08,16.8,16.8,0,0,1,.18,5.48,16.53,16.53,0,0,1-1.25,4.31,16.32,16.32,0,0,1-1.45,2.62c-.41.59-.65.89-.69.87s.77-1.38,1.69-3.68a17.83,17.83,0,0,0,1.05-4.2,17.26,17.26,0,0,0-.22-5.27,30.58,30.58,0,0,0-3.62-9A35.48,35.48,0,0,1,394.07,432Z"/></g><g id="freepik--Plant--inject-4"><path class="cls-5" d="M61,446.2c.59-2.29-.91-4.58-2.59-6.24s-3.69-3.15-4.56-5.34c-1.42-3.55.49-8.15-1.93-11.11-1.42-1.75-4-2.33-5.23-4.19A9.6,9.6,0,0,1,45.53,416a33.66,33.66,0,0,0-8.41-15.73,29.55,29.55,0,0,0,3.3,15.16c1,1.86,2.18,3.68,2.51,5.76.52,3.38-1.36,6.85-.53,10.17,1,3.79,5.21,6.33,5.41,10.23.17,3.3-2.71,6.2-2.49,9.5A8.8,8.8,0,0,0,46.79,455c2.55,4.24,6.3,7.16,12,7.07l7,.24Z"/><g class="cls-6"><path d="M61,446.2c.59-2.29-.91-4.58-2.59-6.24s-3.69-3.15-4.56-5.34c-1.42-3.55.49-8.15-1.93-11.11-1.42-1.75-4-2.33-5.23-4.19A9.6,9.6,0,0,1,45.53,416a33.66,33.66,0,0,0-8.41-15.73,29.55,29.55,0,0,0,3.3,15.16c1,1.86,2.18,3.68,2.51,5.76.52,3.38-1.36,6.85-.53,10.17,1,3.79,5.21,6.33,5.41,10.23.17,3.3-2.71,6.2-2.49,9.5A8.8,8.8,0,0,0,46.79,455c2.55,4.24,6.3,7.16,12,7.07l7,.24Z"/></g><path class="cls-7" d="M67.14,462.49a5.57,5.57,0,0,0,1.91-.05,11.67,11.67,0,0,0,2.26-.56,9.66,9.66,0,0,0,2.8-1.53,4,4,0,0,0,1.14-1.54,7.28,7.28,0,0,0,.33-2.07,21.27,21.27,0,0,1,.16-2.26,6.37,6.37,0,0,1,.85-2.23c.83-1.44,2.19-2.81,2.63-4.77a16.05,16.05,0,0,0-.19-6.1,12.91,12.91,0,0,1,.16-6.53c.75-2.18,2.27-4.15,3-6.6s.4-5.14.56-7.77a10.34,10.34,0,0,1,.91-3.86c.56-1.24,1.34-2.4,2-3.69,1.24-2.63,1.46-5.6,1.79-8.51.17-1.47.34-2.95.5-4.45a21.61,21.61,0,0,1,.78-4.45,39.33,39.33,0,0,1,1.66-4.3A15.1,15.1,0,0,0,91.2,389a21.62,21.62,0,0,0,.22-2.4,27.62,27.62,0,0,0-.18-4.81c-.19-1.61-.48-3.2-.65-4.81v-.6l-.29.14a10.78,10.78,0,0,0-3.74,3.17,16.76,16.76,0,0,0-2.3,4.24A51.74,51.74,0,0,0,82,393a24.86,24.86,0,0,1-2.86,8.42c-.76,1.24-1.68,2.37-2.49,3.58a9.8,9.8,0,0,0-1.73,4c-.41,2.95,1.21,5.53.87,8.14a9,9,0,0,1-1.27,3.61c-.63,1.11-1.37,2.14-2.08,3.18a20.94,20.94,0,0,0-1.86,3.21,10.23,10.23,0,0,0-.86,3.49c-.17,2.35.17,4.57,0,6.67A15.45,15.45,0,0,1,68,443c-.85,1.71-1.78,3.26-2.57,4.76a16.56,16.56,0,0,0-1,2.22,10.57,10.57,0,0,0-.61,2.2,13.75,13.75,0,0,0,0,4,10,10,0,0,0,2,5.07,4.05,4.05,0,0,0,.56.61,4.31,4.31,0,0,0,.46.39l.4.28a9,9,0,0,1-1.35-1.34,10,10,0,0,1-1.89-5,13.48,13.48,0,0,1,.09-3.91,10.57,10.57,0,0,1,.61-2.15c.3-.72.67-1.45,1.06-2.19.79-1.49,1.74-3,2.6-4.75A15.78,15.78,0,0,0,70,437.3c.18-2.15-.14-4.38,0-6.67a9.87,9.87,0,0,1,.83-3.38,21.92,21.92,0,0,1,1.85-3.14c.71-1,1.46-2.07,2.11-3.2a9.51,9.51,0,0,0,1.32-3.76c.34-2.78-1.27-5.38-.85-8.12A9.37,9.37,0,0,1,77,405.24c.79-1.19,1.72-2.32,2.5-3.59a25,25,0,0,0,2.93-8.56,52.4,52.4,0,0,1,2.15-9A16.52,16.52,0,0,1,86.82,380a10.31,10.31,0,0,1,3.59-3l-.32-.18v.28c.18,1.63.47,3.22.65,4.81a26.83,26.83,0,0,1,.19,4.74,14.61,14.61,0,0,1-.21,2.32A12.68,12.68,0,0,1,90,391a39.57,39.57,0,0,0-1.67,4.36,22.41,22.41,0,0,0-.79,4.52c-.16,1.5-.33,3-.49,4.45-.33,2.93-.55,5.85-1.74,8.38-.59,1.26-1.37,2.43-2,3.7a10.63,10.63,0,0,0-.93,4c-.15,2.69.2,5.32-.53,7.69s-2.24,4.35-3,6.59a13.12,13.12,0,0,0-.15,6.7,15.74,15.74,0,0,1,.22,6c-.4,1.87-1.72,3.22-2.56,4.7a6.25,6.25,0,0,0-.86,2.33,17.46,17.46,0,0,0-.15,2.28,7.51,7.51,0,0,1-.3,2,3.79,3.79,0,0,1-1,1.51,9.51,9.51,0,0,1-2.72,1.54,13.13,13.13,0,0,1-2.23.61,9.61,9.61,0,0,1-1.42.13Z"/><path class="cls-7" d="M89.12,380.5a.83.83,0,0,0-.06.21,3.63,3.63,0,0,1-.16.63c-.13.55-.3,1.38-.56,2.41s-.9,2.2-1.44,3.63a51.16,51.16,0,0,0-1.66,4.94c-.53,1.86-1,3.92-1.49,6.12a26.2,26.2,0,0,1-2.23,6.8c-.57,1.13-1.21,2.28-1.72,3.53a16.29,16.29,0,0,0-1,4,80.23,80.23,0,0,1-1.5,8.42c-1.4,5.7-2.73,11.13-3.94,16.08l-3.3,13.11c-.91,3.71-1.66,6.73-2.18,8.86-.24,1-.44,1.82-.57,2.41-.06.25-.11.46-.14.63a.81.81,0,0,0,0,.22,1.72,1.72,0,0,0,.07-.21l.18-.62.66-2.39c.55-2.12,1.35-5.12,2.32-8.82s2.12-8.17,3.39-13.09,2.56-10.38,4-16.08a81,81,0,0,0,1.5-8.46,15.9,15.9,0,0,1,1-3.89c.5-1.22,1.13-2.36,1.7-3.5a26.24,26.24,0,0,0,2.22-6.9c.48-2.22.93-4.27,1.44-6.12a46,46,0,0,1,1.58-4.94,30.07,30.07,0,0,0,1.38-3.67c.26-1.06.37-1.88.48-2.44,0-.26.08-.47.11-.64A.63.63,0,0,0,89.12,380.5Z"/><path class="cls-5" d="M68.36,462.51c4.55-2.7,5.85-10.91,4-15.84S67.1,437.22,66.59,432c-.39-4,.93-8.2,0-12.15-1.27-5.34-6.48-9.47-6.42-15,0-3.08,1.78-6,1.64-9.05C61.64,392,58.75,389,57,385.72c-2.74-5.09-2.92-11.1-3.86-16.8S50,357.11,44.92,354.31c-.75,4.84-2,8.15-1.62,14.71.14,2.36,2.88,6.86,3.25,12,.22,3.08.38,6.17.56,9.26a30.07,30.07,0,0,0,1.46,8.87c.82,2.16,2.15,4.11,2.76,6.34,1.16,4.18-.36,8.71.57,13,.79,3.59,3.28,6.68,3.78,10.33.72,5.11-2.59,10.43-.9,15.31.84,2.42,2.83,4.36,3.4,6.87.44,1.94,0,4,.36,5.94.64,3.14,6.63,5.58,9.82,5.38"/><path class="cls-7" d="M46.17,359.11a1.22,1.22,0,0,0,0,.27c0,.21.06.47.1.8.11.7.22,1.73.46,3.05s.94,2.84,1.49,4.65,1.16,3.89,1.67,6.23,1,4.91,1.41,7.69a32.47,32.47,0,0,0,2.33,8.7c.63,1.45,1.35,2.9,1.89,4.45a19.66,19.66,0,0,1,1,4.91,101.8,101.8,0,0,0,1.34,10.59c1.39,7.18,2.72,14,3.92,20.23s2.42,11.77,3.39,16.47l2.31,11.1.66,3q.1.48.18.78a2.5,2.5,0,0,0,.07.26,1.22,1.22,0,0,0,0-.27,7.45,7.45,0,0,0-.13-.79c-.14-.72-.33-1.74-.57-3-.53-2.66-1.27-6.45-2.18-11.12s-2.06-10.29-3.29-16.5-2.51-13-3.89-20.21A101.23,101.23,0,0,1,57,399.84a20.35,20.35,0,0,0-1-5c-.55-1.58-1.28-3-1.92-4.48a32.37,32.37,0,0,1-2.34-8.59c-.47-2.78-.92-5.36-1.46-7.7s-1.14-4.43-1.74-6.23-1.29-3.31-1.56-4.61-.41-2.34-.54-3c-.06-.33-.11-.59-.15-.79A.92.92,0,0,0,46.17,359.11Z"/></g><g id="freepik--Device--inject-4"><rect class="cls-7" x="140.19" y="80.02" width="266.62" height="382.62" rx="11.55"/><rect class="cls-1" x="148.6" y="106.2" width="249.81" height="319.54"/><circle class="cls-8" cx="273.5" cy="443.4" r="10.23"/><rect class="cls-8" x="233.35" y="91.04" width="80.3" height="4.23" rx="1.22"/><path class="cls-4" d="M304.8,400H242.21a13.43,13.43,0,0,1-13.43-13.43h0a13.43,13.43,0,0,1,13.43-13.43H304.8a13.43,13.43,0,0,1,13.43,13.43h0A13.43,13.43,0,0,1,304.8,400Z"/><path class="cls-9" d="M256.6,388.21l.24-.48a2.68,2.68,0,0,0,1.86.72c1.06,0,1.53-.45,1.53-1,0-1.62-3.48-.64-3.47-2.83,0-.87.65-1.62,2.09-1.61a3.05,3.05,0,0,1,1.75.53l-.2.5a2.75,2.75,0,0,0-1.55-.5c-1,0-1.5.47-1.5,1.07,0,1.62,3.48.65,3.47,2.8,0,.87-.67,1.61-2.12,1.61A3,3,0,0,1,256.6,388.21Z"/><path class="cls-9" d="M262.14,383h.59v5.91h-.6Z"/><path class="cls-9" d="M269.3,383.08V389h-.49l-3.62-4.81V389h-.6v-5.91h.49l3.62,4.81v-4.8Z"/><path class="cls-9" d="M275.12,386.06h.57v2.25a3,3,0,1,1-2.08-5.25,2.71,2.71,0,0,1,2.09.86l-.37.39a2.3,2.3,0,0,0-1.7-.7,2.45,2.45,0,0,0,.07,4.9,2.42,2.42,0,0,0,1.38-.45Z"/><path class="cls-9" d="M279.45,386.51v-3.39h.6v3.36c0,1.4.63,2,1.73,2s1.74-.64,1.74-2v-3.36h.58v3.38c0,1.7-.88,2.57-2.33,2.56S279.44,388.21,279.45,386.51Z"/><path class="cls-9" d="M290.33,385.2c0,1.26-.88,2-2.32,2h-1.52v1.87h-.6v-5.91H288C289.46,383.17,290.33,383.93,290.33,385.2Zm-.6,0c0-.95-.59-1.49-1.72-1.5H286.5v2.95H288c1.13,0,1.73-.52,1.73-1.45Z"/><rect class="cls-4" x="203.75" y="252.05" width="35.64" height="6.54"/><path class="cls-4" d="M342.06,293.26a5.64,5.64,0,0,0,.82-.15,2.87,2.87,0,0,0,1.75-1.57,3.77,3.77,0,0,0,.24-1.76v-16.5a2.93,2.93,0,0,0-.4-1.83,2.83,2.83,0,0,0-1.51-1.17,9.14,9.14,0,0,0-2.09-.12h-20l-115.5-.42a2.56,2.56,0,0,0-2.53,2.23v16.55a7.82,7.82,0,0,0,.09,1.93,2.49,2.49,0,0,0,1,1.42,2.82,2.82,0,0,0,1.72.45h6l30.67.16,51.92.32,35,.27,9.52.11,2.47.05h-47l-51.93-.17L211.62,293h-6a3.57,3.57,0,0,1-2.13-.57,3.26,3.26,0,0,1-1.29-1.82,8.45,8.45,0,0,1-.12-2.13V271.85A3.27,3.27,0,0,1,205.4,269l115.5.63,20,.15a9.11,9.11,0,0,1,2.21.15,3.12,3.12,0,0,1,1.71,1.34,3.41,3.41,0,0,1,.44,2v1.93c0,2.51,0,4.81-.06,6.88s0,3.89-.05,5.49v2.2a3.92,3.92,0,0,1-.29,1.82,2.93,2.93,0,0,1-1.86,1.58A2.47,2.47,0,0,1,342.06,293.26Z"/><rect class="cls-4" x="216.86" y="300.74" width="6.54" height="35.64" transform="translate(-99.42 537.24) rotate(-89.74)"/><path class="cls-4" d="M341.79,355.5a5.64,5.64,0,0,0,.82-.15,2.92,2.92,0,0,0,1.76-1.58,3.88,3.88,0,0,0,.24-1.75v-16.5a3,3,0,0,0-.41-1.83,2.73,2.73,0,0,0-1.5-1.17,9.23,9.23,0,0,0-2.1-.12H320.66L205.16,332a2.54,2.54,0,0,0-2.53,2.23c0,1.32,0,2.78,0,4.15v12.4a8.39,8.39,0,0,0,.08,1.94,2.58,2.58,0,0,0,1,1.42,2.71,2.71,0,0,0,1.73.44h6l30.66.17L294,355l35,.28,9.51.11H329l-35-.05-52,0-30.67-.12h-6a3.46,3.46,0,0,1-2.12-.56,3.33,3.33,0,0,1-1.3-1.82,8.94,8.94,0,0,1-.11-2.13V334.11a3.27,3.27,0,0,1,3.25-2.87l115.5.64,19.95.15a9,9,0,0,1,2.2.15,3.08,3.08,0,0,1,1.71,1.34,3.4,3.4,0,0,1,.45,2v1.92c0,2.52,0,4.82-.06,6.88s0,3.9-.06,5.5V352a3.86,3.86,0,0,1-.29,1.81,2.91,2.91,0,0,1-1.87,1.59A2.34,2.34,0,0,1,341.79,355.5Z"/><rect class="cls-4" x="241.68" y="248.72" width="6.11" height="65.19" transform="translate(-37.68 524.77) rotate(-89.74)"/><path class="cls-4" d="M218.06,344.19a2.86,2.86,0,1,1-2.84-3.06,2.94,2.94,0,0,1,2.84,3Z"/><path class="cls-4" d="M226.89,344.23a2.86,2.86,0,1,1-2.84-3.05,2.94,2.94,0,0,1,2.84,3Z"/><path class="cls-4" d="M235.72,344.27a2.86,2.86,0,1,1-2.84-3A2.94,2.94,0,0,1,235.72,344.27Z"/><path class="cls-4" d="M244.55,344.31a2.86,2.86,0,1,1-2.84-3.05A3,3,0,0,1,244.55,344.31Z"/><path class="cls-4" d="M253.38,344.35a2.86,2.86,0,1,1-2.84-3.05A3,3,0,0,1,253.38,344.35Z"/><path class="cls-4" d="M262.21,344.39a2.86,2.86,0,1,1-2.84-3.05A3,3,0,0,1,262.21,344.39Z"/><path class="cls-4" d="M271,344.43a2.86,2.86,0,1,1-2.84-3.05A3,3,0,0,1,271,344.43Z"/><path class="cls-4" d="M279.87,344.47a2.86,2.86,0,1,1-2.83-3.05,2.94,2.94,0,0,1,2.83,3.05Z"/><path class="cls-4" d="M288.7,344.51a2.86,2.86,0,1,1-2.83-3.05,2.94,2.94,0,0,1,2.83,3.05Z"/><circle class="cls-4" cx="279.8" cy="181.75" r="48.88"/><path class="cls-1" d="M283.58,182.44a10.69,10.69,0,0,0,6.37-9.9c0-5.91-4.45-10.72-10-10.74s-10,4.74-10.07,10.65a10.69,10.69,0,0,0,6.39,10c-15.44,2.32-14.74,19.1-14.74,19.1l36.51.17S298.88,184.75,283.58,182.44Z"/></g><rect class="cls-7" x="103.83" y="229.31" width="12.88" height="233.26"/><rect class="cls-8" x="100.25" y="229.31" width="12.88" height="233.26"/><path class="cls-5" d="M173.77,206.92v-26.3a3.39,3.39,0,0,0-.78-2.18Q154.3,159.69,135.53,141a4.21,4.21,0,0,0-2.7-1.08c-17.32-.06-34.63,0-51.94-.08a4.17,4.17,0,0,0-3.27,1.42q-18.37,18.45-36.79,36.87a4,4,0,0,0-1,2.55q-.09,26.22,0,52.44a4,4,0,0,0,1.07,2.53q18.36,18.48,36.79,36.89A4.13,4.13,0,0,0,80.92,274q25.8-.06,51.61,0a4.25,4.25,0,0,0,3.3-1.35c12.24-12.31,24.55-24.56,36.78-36.88a4.22,4.22,0,0,0,1.11-2.69C173.8,224.34,173.77,215.63,173.77,206.92Z"/><g id="freepik--4mamg4tif--inject-4"><path class="cls-5" d="M30.14,206.76V176.68a3.81,3.81,0,0,1,1-2.42q16.72-16.83,33.55-33.59c3.06-3.06,6.07-6.16,9.19-9.15a4.05,4.05,0,0,1,2.52-1.1c20.06-.06,40.11,0,60.17-.07a4,4,0,0,1,3.15,1.32q21.21,21.3,42.49,42.55a3.73,3.73,0,0,1,1,2.39c0,20.17,0,40.33,0,60.5a3.46,3.46,0,0,1-1.13,2.72Q165.47,256.4,148.89,273c-3.17,3.17-6.35,6.34-9.6,9.44a3.6,3.6,0,0,1-2.24.95q-30.42.08-60.83,0a3.31,3.31,0,0,1-2.11-.86q-17.78-17.65-35.47-35.39c-2.48-2.47-5-4.91-7.39-7.47a4.14,4.14,0,0,1-1.06-2.54C30.12,227,30.14,216.9,30.14,206.76Zm76.64-71.91H78.18a3.11,3.11,0,0,0-2,.72q-20.33,20.2-40.53,40.53a3.81,3.81,0,0,0-1,2.42q-.07,28.35,0,56.71a3.91,3.91,0,0,0,1,2.54q20,20.14,40.2,40.17a3.79,3.79,0,0,0,2.41,1c18.84.05,37.69,0,56.54.07a3.66,3.66,0,0,0,2.87-1.19q19.89-19.95,39.85-39.85a3.85,3.85,0,0,0,1.2-3q0-28.28-.06-56.55a3.7,3.7,0,0,0-.94-2.26c-3.5-3.62-7.09-7.15-10.65-10.72q-14.52-14.53-29-29.09a4.75,4.75,0,0,0-3.73-1.53c-9.15.07-18.34,0-27.56,0Z"/><path class="cls-1" d="M106.78,134.85H134.4a4.75,4.75,0,0,1,3.73,1.53q14.48,14.58,29,29.09c3.56,3.57,7.15,7.1,10.65,10.72a3.7,3.7,0,0,1,.94,2.26c.05,18.85,0,37.7.06,56.55a3.85,3.85,0,0,1-1.2,3q-20,19.89-39.85,39.85a3.66,3.66,0,0,1-2.87,1.19q-28.28,0-56.54-.07a3.79,3.79,0,0,1-2.41-1q-20.16-20-40.2-40.17a3.91,3.91,0,0,1-1-2.54q-.09-28.37,0-56.71a3.81,3.81,0,0,1,1-2.42q20.2-20.32,40.53-40.53a3.11,3.11,0,0,1,2-.72C87.71,134.83,97.25,134.85,106.78,134.85Zm66.93,72.07v-26.3a3.39,3.39,0,0,0-.78-2.18Q154.29,159.69,135.5,141a4.21,4.21,0,0,0-2.7-1.08c-17.31-.06-34.63,0-51.94-.08a4.22,4.22,0,0,0-3.26,1.42q-18.39,18.45-36.8,36.87a4,4,0,0,0-1,2.55q-.09,26.22,0,52.44a4,4,0,0,0,1.07,2.53q18.36,18.48,36.79,36.89a4.18,4.18,0,0,0,3.2,1.42q25.81-.06,51.61,0a4.25,4.25,0,0,0,3.3-1.35c12.25-12.31,24.55-24.56,36.79-36.88a4.26,4.26,0,0,0,1.1-2.69c.08-8.74.05-17.45.05-26.16Z"/></g><path class="cls-1" d="M95.21,214.16H89.55v7.3H81.71v-7.3H63v-5.41l16.38-22h8.43l-15.18,20.9H82v-6.5h7.59v6.5h5.66Z"/><path class="cls-1" d="M97.59,204.09c0-11.47,6.35-18,14.89-18s14.89,6.5,14.89,18-6.3,18-14.89,18S97.59,215.55,97.59,204.09Zm21.69,0c0-7.89-2.78-11.17-6.8-11.17s-6.75,3.28-6.75,11.17,2.78,11.17,6.75,11.17S119.28,212,119.28,204.09Z"/><path class="cls-1" d="M144.39,186.71v34.75h-8V193.17h-7v-6.46Z"/><g id="freepik--Padlock--inject-4"><path class="cls-3" d="M325.32,238.6a13.51,13.51,0,0,0-18.14-6h0l-18.34,9.24a13.51,13.51,0,0,0-6,18.14h0A13.51,13.51,0,0,0,301,266l0,0,18.34-9.24A13.52,13.52,0,0,0,325.32,238.6Zm-8.75,12.48-18.2,9.17a7.2,7.2,0,1,1-6.48-12.87h0l18.2-9.17a7.2,7.2,0,1,1,6.48,12.87Z"/><path class="cls-4" d="M317.8,239l6-2.79a12.83,12.83,0,0,0-1.48-1.56L316.15,238S317.64,238.54,317.8,239Z"/><path class="cls-4" d="M320.33,246.5l6.34-.11a26.09,26.09,0,0,0-.06-3.75l-6.13,2.87Z"/><path class="cls-10" d="M325.32,238.6a13.51,13.51,0,0,0-18.14-6h0l-18.34,9.24a13.51,13.51,0,0,0-6,18.14h0A13.51,13.51,0,0,0,301,266l0,0,18.34-9.24A13.52,13.52,0,0,0,325.32,238.6Zm-8.75,12.48-18.2,9.17a7.2,7.2,0,1,1-6.48-12.87h0l18.2-9.17a7.2,7.2,0,1,1,6.48,12.87Z"/><path class="cls-7" d="M316.57,251.08a8.4,8.4,0,0,0,2.48-2.23,7.13,7.13,0,0,0,1.31-3.61,7,7,0,0,0-10.06-6.88l-3.35,1.7L292,247.61a7,7,0,0,0,4.31,13.08,11.63,11.63,0,0,0,3.22-1.27l5.7-2.84,8.27-4.07,2.26-1.08a4.41,4.41,0,0,1,.8-.35,5.66,5.66,0,0,1-.75.44l-2.22,1.17-8.2,4.22-5.67,2.89a11.46,11.46,0,0,1-3.33,1.34,7.45,7.45,0,0,1-8.26-9.91,8.12,8.12,0,0,1,.43-.95,7.51,7.51,0,0,1,3.21-3.13l15-7.52L310.1,238a7.37,7.37,0,0,1,10.55,7.25,7.18,7.18,0,0,1-1.44,3.71,6.89,6.89,0,0,1-1.86,1.71,3.91,3.91,0,0,1-.57.31C316.65,251.06,316.58,251.09,316.57,251.08Z"/><path class="cls-7" d="M325.32,238.6a1.59,1.59,0,0,1,.15.29c.11.22.24.51.41.87a12.11,12.11,0,0,1,.51,1.47,14.8,14.8,0,0,1,.39,2.09,13.8,13.8,0,0,1-.61,5.78,14.73,14.73,0,0,1-1.62,3.28,14.36,14.36,0,0,1-2.77,3,22.22,22.22,0,0,1-3.88,2.29l-4.32,2.2L304,264.72a35.61,35.61,0,0,1-5.3,2.41,13.3,13.3,0,0,1-6.08.36,13.73,13.73,0,0,1-10-19.83,13.18,13.18,0,0,1,3.91-4.67,35.66,35.66,0,0,1,5.09-2.83l9.56-4.79,4.34-2.17a22.16,22.16,0,0,1,4.14-1.75,15.15,15.15,0,0,1,4.08-.43,14.74,14.74,0,0,1,3.6.66,13.61,13.61,0,0,1,5,2.94,13.39,13.39,0,0,1,1.45,1.56c.36.5.66.93.88,1.29l.45.84a1.55,1.55,0,0,1,.14.29,15.69,15.69,0,0,0-3-3.83,13.49,13.49,0,0,0-5-2.82,14,14,0,0,0-3.52-.6,14.58,14.58,0,0,0-4,.45,22.15,22.15,0,0,0-4.06,1.76l-4.33,2.19-9.54,4.84a34.47,34.47,0,0,0-5,2.79,12.89,12.89,0,0,0-3.75,4.51,13.23,13.23,0,0,0,9.62,19.1,12.91,12.91,0,0,0,5.86-.33,34.48,34.48,0,0,0,5.22-2.36l9.57-4.79,4.33-2.17a21.82,21.82,0,0,0,3.83-2.22,13.32,13.32,0,0,0,4.34-6.11,13.48,13.48,0,0,0,.69-5.67A15.83,15.83,0,0,0,325.32,238.6Z"/><path class="cls-3" d="M383.92,209.64a13.51,13.51,0,0,0-18.12-6h0l-18.34,9.24a13.51,13.51,0,0,0-6,18.14h0a13.51,13.51,0,0,0,18.14,6h0l18.35-9.24a13.5,13.5,0,0,0,6-18.12Zm-8.74,12.47L357,231.28a7.21,7.21,0,0,1-6.87-12.68l.38-.19,18.2-9.17a7.21,7.21,0,0,1,6.49,12.87Z"/><path class="cls-4" d="M376.4,210l6-2.8a13.47,13.47,0,0,0-1.47-1.55L374.79,209S376.24,209.57,376.4,210Z"/><path class="cls-4" d="M378.93,217.54l6.34-.11a26.21,26.21,0,0,0,0-3.76l-6.13,2.87Z"/><path class="cls-10" d="M383.92,209.64a13.51,13.51,0,0,0-18.12-6h0l-18.34,9.24a13.51,13.51,0,0,0-6,18.14h0a13.51,13.51,0,0,0,18.14,6h0l18.35-9.24a13.5,13.5,0,0,0,6-18.12Zm-8.74,12.47L357,231.28a7.21,7.21,0,0,1-6.87-12.68l.38-.19,18.2-9.17a7.21,7.21,0,0,1,6.49,12.87Z"/><path class="cls-7" d="M375.18,222.11a8.59,8.59,0,0,0,2.47-2.22,7,7,0,0,0-8.75-10.49l-3.35,1.69-14.94,7.55a7,7,0,0,0-3.79,6.89,7.16,7.16,0,0,0,1.47,3.65,7,7,0,0,0,3,2.2,6.83,6.83,0,0,0,3.58.34,11,11,0,0,0,3.23-1.27l5.7-2.83,8.26-4.08,2.26-1.08a7.32,7.32,0,0,1,.81-.35,4.42,4.42,0,0,1-.76.44l-2.22,1.17L364,227.94l-5.67,2.89a11.52,11.52,0,0,1-3.34,1.34,7.52,7.52,0,0,1-3.82-.34,7.45,7.45,0,0,1-.8-13.65l15-7.51,3.37-1.68a7.58,7.58,0,0,1,3.54-.72,7.39,7.39,0,0,1,7,8.06,7.17,7.17,0,0,1-3.29,5.41,4.63,4.63,0,0,1-.58.31Z"/><path class="cls-7" d="M383.92,209.64s.06.09.16.28l.41.87q.22.59.51,1.47a14.93,14.93,0,0,1,.39,2.1,13.6,13.6,0,0,1-.62,5.77,13.88,13.88,0,0,1-1.61,3.28,14.41,14.41,0,0,1-2.78,3,21,21,0,0,1-3.87,2.29l-4.32,2.2-9.55,4.83a34.19,34.19,0,0,1-5.3,2.41,13.3,13.3,0,0,1-6.08.36,13.61,13.61,0,0,1-5.82-2.42,14.1,14.1,0,0,1-4.22-5,13.9,13.9,0,0,1-1.46-6.33,13.57,13.57,0,0,1,1.51-6.12,13.4,13.4,0,0,1,3.91-4.68,35.06,35.06,0,0,1,5.09-2.82l9.57-4.8,4.33-2.16a21.6,21.6,0,0,1,4.15-1.75,14.38,14.38,0,0,1,4.08-.43,14.11,14.11,0,0,1,3.59.65,13.61,13.61,0,0,1,5,2.94,15.12,15.12,0,0,1,1.44,1.56c.37.5.66.93.89,1.29l.45.84a1,1,0,0,1,.13.3,15.11,15.11,0,0,0-3-3.84,13.78,13.78,0,0,0-5-2.82,14,14,0,0,0-3.52-.6,14.59,14.59,0,0,0-4,.46,21.44,21.44,0,0,0-4.06,1.75L360,206.78l-9.55,4.84a34.47,34.47,0,0,0-5,2.79,13.27,13.27,0,0,0-5.21,10.42A13.23,13.23,0,0,0,351.32,238a12.91,12.91,0,0,0,5.86-.33,34.48,34.48,0,0,0,5.22-2.36l9.56-4.79,4.34-2.17a21.82,21.82,0,0,0,3.83-2.22,15.12,15.12,0,0,0,2.73-2.92A14.44,14.44,0,0,0,384.5,220a13.45,13.45,0,0,0,.69-5.66A15.39,15.39,0,0,0,383.92,209.64Z"/><path class="cls-3" d="M408.5,202.77l-31.32,14.66a3.51,3.51,0,0,1-4.67-1.67v0h0a3.52,3.52,0,0,1,1.7-4.68h0l31.31-14.67a3.52,3.52,0,0,1,4.68,1.7h0a3.51,3.51,0,0,1-1.67,4.67Z"/><path class="cls-7" d="M408.5,202.77a4.31,4.31,0,0,0,.74-.54,3.44,3.44,0,0,0,.33-4.85,3.52,3.52,0,0,0-1-.78,3.38,3.38,0,0,0-2.44-.26,8.62,8.62,0,0,0-1.29.55l-1.36.65-29.19,13.75a3.27,3.27,0,0,0,1.09,6.21,3.49,3.49,0,0,0,2-.44l2-.92,3.8-1.77,13.16-6.1,8.89-4.07,2.43-1.09.63-.27a.88.88,0,0,1,.23-.07l-.2.12-.62.32-2.39,1.17-8.82,4.22-13.11,6.2-3.79,1.79-2,.92a4,4,0,0,1-2.26.49,3.77,3.77,0,0,1-1.26-7.17l29.25-13.62,1.37-.63a8.46,8.46,0,0,1,1.36-.56,3.65,3.65,0,0,1,4.53,4,3.56,3.56,0,0,1-1.29,2.32A2.8,2.8,0,0,1,408.5,202.77Z"/><path class="cls-3" d="M349.89,231.73,318.58,246.4a3.51,3.51,0,0,1-4.67-1.67v0h0a3.51,3.51,0,0,1,1.67-4.67h0l31.32-14.67a3.52,3.52,0,0,1,4.68,1.69h0a3.52,3.52,0,0,1-1.7,4.68Z"/><path class="cls-7" d="M349.89,231.73a6.46,6.46,0,0,0,.75-.54,3.43,3.43,0,0,0,1.15-2.26,3.37,3.37,0,0,0-1.81-3.36,3.44,3.44,0,0,0-2.44-.27,8.24,8.24,0,0,0-1.29.56l-1.36.65L315.7,240.26a3.27,3.27,0,0,0,1.09,6.21,3.57,3.57,0,0,0,2-.44l2-.92,3.8-1.77,13.16-6.1,8.89-4.08,2.43-1.08.64-.27.22-.08a1.53,1.53,0,0,1-.2.13l-.62.31-2.38,1.18-8.82,4.22-13.12,6.2L321,245.56l-2,.92a4,4,0,0,1-2.25.49,3.75,3.75,0,0,1-3.37-3,3.82,3.82,0,0,1,2.1-4.15l29.26-13.61,1.37-.64a9.32,9.32,0,0,1,1.35-.55,3.63,3.63,0,0,1,4.44,2.6A3.67,3.67,0,0,1,352,229a3.47,3.47,0,0,1-1.29,2.31A2.45,2.45,0,0,1,349.89,231.73Z"/><path class="cls-3" d="M209.36,294.1a13.53,13.53,0,0,0-18.15-6l-18.34,9.24a13.51,13.51,0,0,0-6,18.14h0a13.51,13.51,0,0,0,18.14,6h0l18.34-9.24A13.53,13.53,0,0,0,209.36,294.1Zm-8.75,12.48-18.2,9.17a7.2,7.2,0,0,1-6.48-12.87h0l18.2-9.17a7.2,7.2,0,1,1,6.48,12.87Z"/><path class="cls-4" d="M201.83,294.49l6-2.79a13.65,13.65,0,0,0-1.48-1.56l-6.14,3.37S201.67,294,201.83,294.49Z"/><path class="cls-4" d="M204.36,302l6.34-.11a26.08,26.08,0,0,0,0-3.75L204.52,301Z"/><path class="cls-10" d="M209.36,294.1a13.53,13.53,0,0,0-18.15-6l-18.34,9.24a13.51,13.51,0,0,0-6,18.14h0a13.51,13.51,0,0,0,18.14,6h0l18.34-9.24A13.53,13.53,0,0,0,209.36,294.1Zm-8.75,12.48-18.2,9.17a7.2,7.2,0,0,1-6.48-12.87h0l18.2-9.17a7.2,7.2,0,1,1,6.48,12.87Z"/><path class="cls-7" d="M200.61,306.58a9,9,0,0,0,2.48-2.23,7.13,7.13,0,0,0,1.31-3.61,7,7,0,0,0-10.06-6.88L191,295.55c-4.59,2.33-9.64,4.88-14.94,7.55a7,7,0,0,0-3.79,6.9,7.12,7.12,0,0,0,1.47,3.64,7,7,0,0,0,6.64,2.55,11.63,11.63,0,0,0,3.22-1.27l5.7-2.84,8.27-4.07,2.26-1.09a4.69,4.69,0,0,1,.8-.34,7.15,7.15,0,0,1-.76.44l-2.21,1.17-8.2,4.22-5.67,2.89a11.79,11.79,0,0,1-3.34,1.33,7.31,7.31,0,0,1-3.82-.34,7.55,7.55,0,0,1-3.28-2.34,7.66,7.66,0,0,1-1.58-3.9,7.46,7.46,0,0,1,4.06-7.4l15-7.52,3.37-1.68a7.58,7.58,0,0,1,3.54-.72,7.4,7.4,0,0,1,5.59,3,7.29,7.29,0,0,1-1.88,10.47c-.24.15-.44.24-.57.31Z"/><path class="cls-7" d="M209.36,294.1s.06.1.15.29l.41.86a14.42,14.42,0,0,1,.51,1.48,14.8,14.8,0,0,1,.39,2.09,13.65,13.65,0,0,1-.62,5.78,14.69,14.69,0,0,1-1.61,3.28,14.88,14.88,0,0,1-2.77,3,22.22,22.22,0,0,1-3.88,2.29l-4.32,2.19-9.54,4.84a36.66,36.66,0,0,1-5.3,2.41,13.59,13.59,0,0,1-6.08.36,13.8,13.8,0,0,1-5.83-2.43,13.72,13.72,0,0,1-4.16-17.4,13.34,13.34,0,0,1,3.9-4.67,35.66,35.66,0,0,1,5.09-2.83l9.57-4.79,4.34-2.17a21.25,21.25,0,0,1,4.14-1.75,14.38,14.38,0,0,1,4.08-.43,14.73,14.73,0,0,1,3.6.65,13.77,13.77,0,0,1,5,3,13.39,13.39,0,0,1,1.45,1.56c.36.5.66.93.88,1.28l.45.85c.1.19.14.29.14.29a15.73,15.73,0,0,0-3.06-3.83,13.55,13.55,0,0,0-12.49-3,22.5,22.5,0,0,0-4.07,1.75l-4.32,2.2-9.54,4.83a35.5,35.5,0,0,0-5,2.8,12.79,12.79,0,0,0-3.75,4.51,13.23,13.23,0,0,0,9.62,19.1,12.91,12.91,0,0,0,5.86-.33,35.5,35.5,0,0,0,5.22-2.36l9.57-4.8,4.33-2.16a21.87,21.87,0,0,0,3.83-2.23,13.4,13.4,0,0,0,4.34-6.1,13.48,13.48,0,0,0,.69-5.67A15.72,15.72,0,0,0,209.36,294.1Z"/><path class="cls-3" d="M268,265.14a13.51,13.51,0,0,0-18.12-6h0l-18.34,9.24a13.51,13.51,0,0,0-6,18.12v0h0a13.51,13.51,0,0,0,18.12,6h0L262,283.28a13.51,13.51,0,0,0,6-18.14Zm-8.74,12.47L241,286.78a7.21,7.21,0,0,1-6.87-12.68l.38-.19,18.2-9.17a7.21,7.21,0,0,1,6.49,12.87Z"/><path class="cls-4" d="M260.44,265.52l6-2.79a13.56,13.56,0,0,0-1.47-1.56l-6.14,3.38S260.28,265.07,260.44,265.52Z"/><path class="cls-4" d="M263,273l6.34-.12a26.09,26.09,0,0,0-.06-3.75L263.13,272Z"/><path class="cls-10" d="M268,265.14a13.51,13.51,0,0,0-18.12-6h0l-18.34,9.24a13.51,13.51,0,0,0-6,18.12v0h0a13.51,13.51,0,0,0,18.12,6h0L262,283.28a13.51,13.51,0,0,0,6-18.14Zm-8.74,12.47L241,286.78a7.21,7.21,0,0,1-6.87-12.68l.38-.19,18.2-9.17a7.21,7.21,0,0,1,6.49,12.87Z"/><path class="cls-7" d="M259.22,277.61a8.59,8.59,0,0,0,2.47-2.22,7.07,7.07,0,0,0,1.31-3.62,7,7,0,0,0-6.39-7.56l-.34,0a7.11,7.11,0,0,0-3.33.7l-3.35,1.7-14.94,7.55a7,7,0,0,0,3.89,13.14l.42-.06a11.81,11.81,0,0,0,3.23-1.27l5.7-2.84,8.26-4.07,2.26-1.08a4.83,4.83,0,0,1,.81-.35,5.77,5.77,0,0,1-.76.44l-2.22,1.17-8.19,4.22-5.67,2.89a11.52,11.52,0,0,1-3.34,1.34,7.43,7.43,0,0,1-8.6-6,5.39,5.39,0,0,1-.08-.56,7.46,7.46,0,0,1,4.06-7.4l15-7.51,3.37-1.68a7.35,7.35,0,0,1,9.12,2.28,7.26,7.26,0,0,1,1.42,5.05,7.18,7.18,0,0,1-1.44,3.71,6.85,6.85,0,0,1-1.85,1.71,4.63,4.63,0,0,1-.58.31Z"/><path class="cls-7" d="M268,265.14s.06.09.16.28l.41.87q.23.58.51,1.47a14.8,14.8,0,0,1,.39,2.09,13.65,13.65,0,0,1-.62,5.78,13.5,13.5,0,0,1-4.39,6.3,22.14,22.14,0,0,1-3.87,2.29l-4.33,2.2-9.54,4.83a34.63,34.63,0,0,1-5.3,2.41,13.3,13.3,0,0,1-6.08.36,13.51,13.51,0,0,1-5.82-2.43,14.15,14.15,0,0,1-4.22-4.94,13.81,13.81,0,0,1,0-12.46,13.57,13.57,0,0,1,3.91-4.67,35.66,35.66,0,0,1,5.09-2.83l9.57-4.79,4.33-2.17A22.25,22.25,0,0,1,252.4,258a14.75,14.75,0,0,1,4.08-.43,14.58,14.58,0,0,1,3.59.66,13.61,13.61,0,0,1,5,2.94,13.39,13.39,0,0,1,1.45,1.56c.36.5.66.93.88,1.29l.46.84a1.14,1.14,0,0,1,.13.3,14.92,14.92,0,0,0-3-3.84,13.78,13.78,0,0,0-5-2.82,13.49,13.49,0,0,0-7.53-.14,21.44,21.44,0,0,0-4.06,1.75l-4.32,2.19-9.55,4.84a34.47,34.47,0,0,0-5,2.79,13.26,13.26,0,0,0,.26,21.27,13.08,13.08,0,0,0,5.61,2.34,12.91,12.91,0,0,0,5.86-.33,35.5,35.5,0,0,0,5.22-2.36L256,286l4.34-2.17a21.82,21.82,0,0,0,3.83-2.22,15.12,15.12,0,0,0,2.73-2.92,14.05,14.05,0,0,0,1.61-3.19,13.48,13.48,0,0,0,.69-5.67A15.51,15.51,0,0,0,268,265.14Z"/><path class="cls-3" d="M292.54,258.27l-31.32,14.66a3.51,3.51,0,0,1-4.67-1.67v0h0a3.52,3.52,0,0,1,1.7-4.68h0l31.31-14.67a3.52,3.52,0,0,1,4.68,1.7h0a3.51,3.51,0,0,1-1.67,4.67Z"/><path class="cls-7" d="M292.54,258.27a4.12,4.12,0,0,0,.74-.55,3.43,3.43,0,0,0,.34-4.84,3.56,3.56,0,0,0-1-.78,3.38,3.38,0,0,0-2.44-.26,8.62,8.62,0,0,0-1.29.55l-1.37.65-29.18,13.75a3.27,3.27,0,0,0,1.09,6.21,3.49,3.49,0,0,0,2-.44l2-.92,3.8-1.77,13.16-6.1,8.89-4.07,2.43-1.09.63-.27c.15-.06.22-.08.23-.07l-.21.12-.61.32-2.39,1.17-8.82,4.22-13.11,6.2-3.8,1.79-2,.92a4,4,0,0,1-2.25.49,3.91,3.91,0,0,1-2.17-.94,3.78,3.78,0,0,1-.3-5.34,3.83,3.83,0,0,1,1.21-.9l29.25-13.61,1.37-.64a9.32,9.32,0,0,1,1.35-.55,3.65,3.65,0,0,1,4.54,4,3.51,3.51,0,0,1-1.29,2.31A2.77,2.77,0,0,1,292.54,258.27Z"/><path class="cls-3" d="M233.93,287.23,202.62,301.9a3.52,3.52,0,0,1-4.68-1.7h0a3.51,3.51,0,0,1,1.67-4.67h0L231,280.86a3.51,3.51,0,0,1,4.67,1.67v0h0a3.52,3.52,0,0,1-1.73,4.67Z"/><path class="cls-7" d="M233.93,287.23c.26-.17.5-.35.74-.54a3.44,3.44,0,0,0,1.16-2.26,3.4,3.4,0,0,0-3-3.73,3.51,3.51,0,0,0-1.21.1,9.09,9.09,0,0,0-1.29.55l-1.36.65-29.19,13.76a3.26,3.26,0,0,0,1.09,6.2,3.49,3.49,0,0,0,2-.44l2-.91,3.8-1.77,13.16-6.1,8.89-4.08,2.43-1.08.64-.27.22-.08a.86.86,0,0,1-.2.13l-.62.31-2.38,1.17-8.83,4.23-13.11,6.2L205,301.05l-2,.92a4,4,0,0,1-2.26.49,3.83,3.83,0,0,1-2.17-.93,3.87,3.87,0,0,1-1.19-2.1,3.79,3.79,0,0,1,2.1-4.14l29.25-13.62,1.38-.63a9.32,9.32,0,0,1,1.35-.55,3.67,3.67,0,0,1,2.66.32,3.63,3.63,0,0,1,1.87,3.64,3.49,3.49,0,0,1-1.29,2.32A2.63,2.63,0,0,1,233.93,287.23Z"/><path class="cls-3" d="M175.48,314.73l-31.31,14.66a3.51,3.51,0,0,1-4.67-1.67v0h0a3.51,3.51,0,0,1,1.67-4.67h0l31.32-14.67a3.53,3.53,0,0,1,4.68,1.7h0A3.53,3.53,0,0,1,175.48,314.73Z"/><path class="cls-7" d="M175.48,314.73a4.56,4.56,0,0,0,.75-.54,3.48,3.48,0,0,0,1.16-2.26,3.41,3.41,0,0,0-1.82-3.37,3.36,3.36,0,0,0-2.43-.26,7.36,7.36,0,0,0-1.29.55l-1.37.65-29.19,13.75a3.27,3.27,0,0,0,1.09,6.21,3.57,3.57,0,0,0,2-.44l2-.91,3.8-1.77,13.16-6.11,8.89-4.07,2.43-1.09.64-.27.22-.07s-.06,0-.2.12l-.61.32-2.39,1.17-8.82,4.22-13.12,6.2-3.79,1.79-2,.92a4,4,0,0,1-2.25.49,3.77,3.77,0,0,1-1.26-7.17l29.25-13.62,1.37-.63a8,8,0,0,1,1.35-.56,3.67,3.67,0,0,1,2.66.33,3.61,3.61,0,0,1,1.87,3.64,3.45,3.45,0,0,1-1.29,2.32A2.5,2.5,0,0,1,175.48,314.73Z"/><path class="cls-5" d="M282.94,273.23a13.33,13.33,0,0,0-18.58-3.13l-25.43,18.08-3.32-4.67L261,265.42a19.09,19.09,0,0,1,26.57,4.49"/><g class="cls-11"><path d="M282.94,273.23a13.33,13.33,0,0,0-18.58-3.13l-25.43,18.08-3.32-4.67L261,265.42a19.09,19.09,0,0,1,26.57,4.49"/></g><rect class="cls-5" x="228.06" y="274.88" width="32.95" height="51.36" rx="5.73" transform="translate(-128.92 197.28) rotate(-35.41)"/><path class="cls-7" d="M242.67,326.35a10,10,0,0,0,1.14,1.12,5.74,5.74,0,0,0,4.29,1.13,6.45,6.45,0,0,0,1.5-.43,8.12,8.12,0,0,0,1.46-.91l3.23-2.32,7.88-5.65,4.58-3.28a12,12,0,0,0,2.29-1.85,5.4,5.4,0,0,0,1.25-2.68,5.6,5.6,0,0,0-.36-3,18.9,18.9,0,0,0-1.78-2.74c-1.31-1.83-2.66-3.71-4-5.64L246.2,274.89a5.56,5.56,0,0,0-3.17-2.15,5.44,5.44,0,0,0-3.74.42,13.65,13.65,0,0,0-1.64,1.08L236,275.38l-3.19,2.27-12.13,8.63a5.5,5.5,0,0,0-1.71,6,11.61,11.61,0,0,0,1.69,2.78l1.86,2.63c2.44,3.44,4.71,6.66,6.78,9.59l9.79,13.91,2.65,3.8.67,1a1.86,1.86,0,0,1,.22.35,4,4,0,0,1-.26-.32l-.72-1-2.65-3.7-9.92-13.82-6.84-9.56-1.87-2.62c-.32-.44-.63-.89-1-1.34a5.91,5.91,0,0,1-.79-1.54,6,6,0,0,1,1.83-6.53c3.87-2.81,7.93-5.66,12.14-8.67l3.19-2.27,1.61-1.15a14.59,14.59,0,0,1,1.7-1.11,6,6,0,0,1,7.55,1.88c6.4,8.93,12.4,17.41,17.9,25.19l4,5.66,1,1.37a7.37,7.37,0,0,1,.86,1.46,6,6,0,0,1-1,6.16,12.12,12.12,0,0,1-2.38,1.9l-4.6,3.25-7.92,5.59-3.25,2.29a9.4,9.4,0,0,1-1.52.91,6.45,6.45,0,0,1-1.56.43,5.8,5.8,0,0,1-4.39-1.25A4.9,4.9,0,0,1,242.67,326.35Z"/><g class="cls-12"><path d="M250.52,301.55a4.29,4.29,0,1,0-6.51-2.07l-5.24,3.72,1.36,1.91,5.23-3.72A4.28,4.28,0,0,0,250.52,301.55Z"/></g><path class="cls-9" d="M220.36,289.58c-.07-.1,4.36-3.36,9.88-7.29s10.06-7,10.13-6.93-4.36,3.35-9.88,7.28S220.43,289.68,220.36,289.58Z"/><path class="cls-9" d="M241.6,298.5a1.37,1.37,0,0,1-.06-.57,5.17,5.17,0,0,1,.28-1.56,6,6,0,0,1,7.51-3.95,6.14,6.14,0,0,1,1.09.46,5.27,5.27,0,0,1,1.28.92c.26.27.38.44.36.46a12.6,12.6,0,0,0-1.78-1.11,6,6,0,0,0-8,2.86c-.07.15-.13.31-.19.46A12.8,12.8,0,0,0,241.6,298.5Z"/><path class="cls-3" d="M308,413.15l6.4,18.73a13.26,13.26,0,0,0,16.82,8.25h0a13.25,13.25,0,0,0,8.25-16.82h0L333,404.25A13.26,13.26,0,0,0,316.17,396a14,14,0,0,0-1.39.57A13.46,13.46,0,0,0,308,413.15Zm11.12-11.65a7.23,7.23,0,0,1,8,4.88l6.31,18.44a7.25,7.25,0,0,1-3.5,8.89,7.07,7.07,0,0,1-9.46-3.27,6,6,0,0,1-.33-.79l-6.46-18.91a7.07,7.07,0,0,1,4.42-9,6.22,6.22,0,0,1,1-.27Z"/><path class="cls-4" d="M321.17,401.43l-2.27-6.05a13.41,13.41,0,0,1,2.1-.08l2,6.57S321.59,401.22,321.17,401.43Z"/><path class="cls-4" d="M314.24,405l-4.36-4.43a26.59,26.59,0,0,1,2.61-2.59l2.33,6.21Z"/><path class="cls-10" d="M308,413.15l6.4,18.73a13.26,13.26,0,0,0,16.82,8.25h0a13.25,13.25,0,0,0,8.25-16.82h0L333,404.25A13.26,13.26,0,0,0,316.17,396a14,14,0,0,0-1.39.57A13.46,13.46,0,0,0,308,413.15Zm11.12-11.65a7.23,7.23,0,0,1,8,4.88l6.31,18.44a7.25,7.25,0,0,1-3.5,8.89,7.07,7.07,0,0,1-9.46-3.27,6,6,0,0,1-.33-.79l-6.46-18.91a7.07,7.07,0,0,1,4.42-9,6.22,6.22,0,0,1,1-.27Z"/><path class="cls-7" d="M319.15,401.5a9,9,0,0,0-2.94,1.41,6.9,6.9,0,0,0-2.23,7.92c1.26,3.61,2.74,7.89,4.39,12.65l1.26,3.66a24.44,24.44,0,0,0,1.44,3.7,6.86,6.86,0,0,0,7,3.18,6.61,6.61,0,0,0,3.61-1.89,6.92,6.92,0,0,0,1.83-3.53c.59-2.66-.85-5.12-1.54-7.52-1.61-4.76-3.06-9.06-4.28-12.69-.31-.89-.57-1.78-.88-2.55a7.22,7.22,0,0,0-1.27-2,7.15,7.15,0,0,0-3.15-2.08,6.42,6.42,0,0,0-2.38-.34,6.17,6.17,0,0,1-.86,0,.54.54,0,0,1,.21-.05,4.49,4.49,0,0,1,.64-.1,6.15,6.15,0,0,1,2.45.26,7.56,7.56,0,0,1,4.66,4.14c.34.81.6,1.66.92,2.57,1.26,3.61,2.74,7.9,4.39,12.65l1.26,3.66a8.05,8.05,0,0,1,.32,4.1,7.39,7.39,0,0,1-1.95,3.8,7.06,7.06,0,0,1-3.89,2,7.34,7.34,0,0,1-7.53-3.42,8.77,8.77,0,0,1-.83-1.91c-.22-.64-.43-1.27-.65-1.9-.42-1.24-.83-2.47-1.24-3.66-1.61-4.77-3.06-9.06-4.28-12.69a7.19,7.19,0,0,1,2.46-8.23,7.29,7.29,0,0,1,2.22-1.09c.27-.07.48-.1.63-.13Z"/><path class="cls-7" d="M308,413.15a1.34,1.34,0,0,1-.12-.3l-.28-.89a13.93,13.93,0,0,1-.44-3.58,13.5,13.5,0,0,1,1.24-5.56,12.9,12.9,0,0,1,1.9-3,12.45,12.45,0,0,1,3-2.65,14.78,14.78,0,0,1,4.08-1.71,14,14,0,0,1,4.79-.22,13.44,13.44,0,0,1,9,5.2l.8,1.18.67,1.26c.18.45.36.9.55,1.35s.31.9.46,1.36l1.92,5.59q2,5.71,4,11.77a13.48,13.48,0,0,1-24.27,11.48,22.08,22.08,0,0,1-1.67-4.09c-1.76-5.27-3.19-9.54-4.2-12.54-.47-1.46-.85-2.6-1.11-3.41l-.28-.9a1.09,1.09,0,0,1-.08-.31,1.94,1.94,0,0,1,.13.3l.32.87c.29.81.7,1.94,1.21,3.39L314,430.23a22.5,22.5,0,0,0,1.66,4,13,13,0,0,0,23.45-11.11l-4-11.77c-.67-1.9-1.3-3.77-1.91-5.6l-.46-1.36-.52-1.3c-.17-.43-.44-.82-.65-1.23l-.76-1.13a13.13,13.13,0,0,0-13.31-4.88,13.81,13.81,0,0,0-4,1.63,12.65,12.65,0,0,0-4.89,5.49,13.54,13.54,0,0,0-1.3,5.45A16.14,16.14,0,0,0,308,413.15Z"/><path class="cls-3" d="M325.1,433.81l11.19,32a3.44,3.44,0,0,0,4.39,2.12h0a3.44,3.44,0,0,0,2.12-4.39l-11.19-32a3.44,3.44,0,0,0-4.39-2.12h0A3.46,3.46,0,0,0,325.1,433.81Z"/><path class="cls-7" d="M325.1,433.81a2.22,2.22,0,0,1-.24-.88,3.47,3.47,0,0,1,.74-2.5,3.57,3.57,0,0,1,5.89.46,7.72,7.72,0,0,1,.54,1.33c.17.45.33.92.5,1.39,2.7,7.68,6.42,18.21,10.51,29.84a3.7,3.7,0,0,1-5.9,4,3.93,3.93,0,0,1-1.2-1.92c-.24-.67-.47-1.34-.7-2l-1.35-3.89c-1.74-5.05-3.31-9.6-4.64-13.44s-2.34-6.89-3.09-9.08l-.81-2.48-.2-.64a.89.89,0,0,1,0-.23,1,1,0,0,1,.1.21l.25.63.9,2.45c.78,2.17,1.89,5.24,3.24,9s3,8.37,4.75,13.41c.44,1.26.9,2.55,1.37,3.87l.7,2a3.49,3.49,0,0,0,1.06,1.7,3.2,3.2,0,0,0,5.09-3.49l-10.37-29.89c-.17-.48-.33-.94-.48-1.4a8.28,8.28,0,0,0-.5-1.28,3.35,3.35,0,0,0-6.24,1.87C325,433.17,325.06,433.49,325.1,433.81Z"/><path class="cls-3" d="M243.66,232.33l6.51,19A13.25,13.25,0,0,0,267,259.64h0a13.26,13.26,0,0,0,8.25-16.82l-6.52-19.05a13.25,13.25,0,0,0-25.07,8.57Zm10.22-11.05a7.05,7.05,0,0,1,9,4.34l0,.06,6.47,18.9a7.06,7.06,0,1,1-13.18,5.06c-.06-.16-.12-.33-.17-.49l-6.47-18.9A7.07,7.07,0,0,1,253.88,221.28Z"/><path class="cls-4" d="M256.91,220.94l-2.26-6.05a12.14,12.14,0,0,1,2.09-.08l2,6.57S257.34,220.73,256.91,220.94Z"/><path class="cls-4" d="M250,224.47,245.62,220a25.62,25.62,0,0,1,2.62-2.59l2.32,6.21Z"/><path class="cls-10" d="M243.66,232.33l6.51,19A13.25,13.25,0,0,0,267,259.64h0a13.26,13.26,0,0,0,8.25-16.82l-6.52-19.05a13.25,13.25,0,0,0-25.07,8.57Zm10.22-11.05a7.05,7.05,0,0,1,9,4.34l0,.06,6.47,18.9a7.06,7.06,0,1,1-13.18,5.06c-.06-.16-.12-.33-.17-.49l-6.47-18.9A7.07,7.07,0,0,1,253.88,221.28Z"/><path class="cls-7" d="M253.88,221.28a8.44,8.44,0,0,0-2.7,1.83,7,7,0,0,0-1.76,3.33,6.68,6.68,0,0,0-.1,2.36,12.26,12.26,0,0,0,.74,2.58c1.25,3.62,2.74,7.91,4.39,12.66l1.26,3.67c.22.61.42,1.27.67,1.86a6.92,6.92,0,0,0,1,1.67,6.81,6.81,0,0,0,12-4.11,6.41,6.41,0,0,0-.2-1.95c-.16-.62-.41-1.26-.61-1.89-.43-1.25-.84-2.47-1.25-3.67L263,226.92a14.08,14.08,0,0,0-1-2.49,7.14,7.14,0,0,0-1.53-1.8,6.9,6.9,0,0,0-3.44-1.56,8.28,8.28,0,0,0-3.25.21l.2-.09a6.36,6.36,0,0,1,.62-.19,7,7,0,0,1,2.46-.13,7.1,7.1,0,0,1,3.59,1.54,7,7,0,0,1,1.63,1.85,14.55,14.55,0,0,1,1.05,2.55c1.25,3.62,2.74,7.9,4.39,12.66l1.26,3.66c.21.64.45,1.24.63,1.92a7.31,7.31,0,0,1-13.79,4.72c-.27-.66-.45-1.28-.67-1.91L254,244.2l-4.28-12.7a13,13,0,0,1-.73-2.66,7.2,7.2,0,0,1,2-5.87,6.84,6.84,0,0,1,2-1.41,4.92,4.92,0,0,1,.6-.23Z"/><path class="cls-7" d="M243.66,232.33a1.08,1.08,0,0,1-.11-.3c-.08-.23-.17-.52-.29-.89a12.76,12.76,0,0,1-.39-3.59,13.27,13.27,0,0,1,1.37-5.53,13.08,13.08,0,0,1,5.1-5.56,13.45,13.45,0,0,1,17.79,3.68,13.66,13.66,0,0,1,1.4,2.47c.38.9.68,1.8,1,2.72q.93,2.74,1.92,5.59,1.95,5.72,4,11.77A14,14,0,0,1,276,249a13.38,13.38,0,0,1-25,4.56,23,23,0,0,1-1.62-4.1c-1.77-5.27-3.2-9.55-4.21-12.55-.47-1.46-.85-2.6-1.11-3.42l-.28-.89a1.57,1.57,0,0,1-.08-.31,2.55,2.55,0,0,1,.13.29l.32.88c.29.81.7,1.94,1.21,3.39l4.36,12.49a23.93,23.93,0,0,0,1.62,4A13,13,0,0,0,275.59,249a13.19,13.19,0,0,0-.55-6.11c-1.38-4-2.72-8-4-11.77-.65-1.91-1.28-3.77-1.91-5.6a27.45,27.45,0,0,0-1-2.68,13.8,13.8,0,0,0-1.35-2.4,13.09,13.09,0,0,0-8.54-5.27,13.22,13.22,0,0,0-8.68,1.63,13.08,13.08,0,0,0-5,5.35,13.27,13.27,0,0,0-1.43,5.41A15.23,15.23,0,0,0,243.66,232.33Z"/><path class="cls-3" d="M222.46,171.84l6.51,19a13.23,13.23,0,0,0,16.81,8.25h0A13.24,13.24,0,0,0,254,182.32l-6.51-19a13.25,13.25,0,0,0-25.07,8.57Zm10.22-11.05a7.05,7.05,0,0,1,9,4.34l0,.06,6.46,18.9a7.06,7.06,0,0,1-13.36,4.57l-6.47-18.9a7.07,7.07,0,0,1,4.37-9Z"/><path class="cls-4" d="M235.71,160.45l-2.27-6a13.41,13.41,0,0,1,2.1-.08l2,6.57S236.13,160.24,235.71,160.45Z"/><path class="cls-4" d="M228.79,164l-4.37-4.43A26.08,26.08,0,0,1,227,157l2.33,6.21Z"/><path class="cls-10" d="M222.46,171.84l6.51,19a13.23,13.23,0,0,0,16.81,8.25h0A13.24,13.24,0,0,0,254,182.32l-6.51-19a13.25,13.25,0,0,0-25.07,8.57Zm10.22-11.05a7.05,7.05,0,0,1,9,4.34l0,.06,6.46,18.9a7.06,7.06,0,0,1-13.36,4.57l-6.47-18.9a7.07,7.07,0,0,1,4.37-9Z"/><path class="cls-7" d="M232.68,160.79a8.44,8.44,0,0,0-2.7,1.83,7,7,0,0,0-1.87,5.69,12.92,12.92,0,0,0,.75,2.58c1.25,3.62,2.74,7.91,4.39,12.66l1.26,3.67c.22.61.42,1.27.67,1.86a6.92,6.92,0,0,0,1,1.67,6.81,6.81,0,0,0,11.8-6.06c-.16-.62-.41-1.26-.62-1.89-.42-1.25-.84-2.47-1.24-3.67-1.61-4.77-3.06-9.07-4.29-12.7a12.46,12.46,0,0,0-1-2.49,7,7,0,0,0-5-3.36,8.28,8.28,0,0,0-3.25.21.45.45,0,0,0,.2-.09,2,2,0,0,1,.61-.19,7.19,7.19,0,0,1,7.69,3.26,14.67,14.67,0,0,1,1,2.55c1.25,3.62,2.74,7.9,4.39,12.66l1.26,3.67c.21.63.45,1.23.63,1.91a7.05,7.05,0,0,1,.22,2.1,7.3,7.3,0,0,1-11.6,5.6,6.9,6.9,0,0,1-1.31-1.22,7.5,7.5,0,0,1-1.1-1.79c-.27-.65-.45-1.28-.67-1.9-.43-1.25-.84-2.48-1.25-3.67-1.61-4.77-3.06-9.07-4.29-12.7a13.59,13.59,0,0,1-.72-2.66,7.07,7.07,0,0,1,4-7.28,4.92,4.92,0,0,1,.6-.23Z"/><path class="cls-7" d="M222.46,171.84a1.88,1.88,0,0,1-.12-.3c-.07-.23-.16-.52-.28-.89a13.15,13.15,0,0,1-.4-3.59,13.44,13.44,0,0,1,1.38-5.53,13.08,13.08,0,0,1,5.1-5.56,13.45,13.45,0,0,1,17.79,3.68,14.67,14.67,0,0,1,1.4,2.47c.38.9.68,1.8,1,2.72l1.92,5.59q2,5.72,4,11.77a14,14,0,0,1,.57,6.35,13.46,13.46,0,0,1-25.11,4.53,24.07,24.07,0,0,1-1.61-4.1c-1.77-5.27-3.2-9.55-4.21-12.55-.47-1.46-.85-2.6-1.12-3.42l-.27-.89a1.57,1.57,0,0,1-.08-.31,2.55,2.55,0,0,1,.13.29l.32.88c.29.81.7,1.94,1.21,3.39l4.36,12.49a23.93,23.93,0,0,0,1.62,4,12.8,12.8,0,0,0,3,3.59,13,13,0,0,0,21.29-8,13.2,13.2,0,0,0-.55-6.11c-1.38-4-2.72-8-4-11.77-.65-1.91-1.29-3.77-1.91-5.6a27.45,27.45,0,0,0-1-2.68,13.8,13.8,0,0,0-1.35-2.4,13.07,13.07,0,0,0-17.22-3.64,14.26,14.26,0,0,0-3,2.47,14.68,14.68,0,0,0-2,2.88,13.43,13.43,0,0,0-1.43,5.41A15.16,15.16,0,0,0,222.46,171.84Z"/><path class="cls-3" d="M203.57,117.82l6.51,19.06a13.26,13.26,0,0,0,16.83,8.25h0a13.25,13.25,0,0,0,8.24-16.83h0l-6.51-19.05a13.25,13.25,0,0,0-25.07,8.57Zm10.22-11a7.07,7.07,0,0,1,9,4.37v0l6.47,18.91a7.06,7.06,0,1,1-13.37,4.57l-6.47-18.91a7.07,7.07,0,0,1,4.34-9h0Z"/><path class="cls-4" d="M216.82,106.43l-2.27-6.05a13.41,13.41,0,0,1,2.1-.08l2,6.58S217.25,106.22,216.82,106.43Z"/><path class="cls-4" d="M209.9,110l-4.37-4.42a27.85,27.85,0,0,1,2.61-2.6l2.33,6.22Z"/><path class="cls-10" d="M203.57,117.82l6.51,19.06a13.26,13.26,0,0,0,16.83,8.25h0a13.25,13.25,0,0,0,8.24-16.83h0l-6.51-19.05a13.25,13.25,0,0,0-25.07,8.57Zm10.22-11a7.07,7.07,0,0,1,9,4.37v0l6.47,18.91a7.06,7.06,0,1,1-13.37,4.57l-6.47-18.91a7.07,7.07,0,0,1,4.34-9h0Z"/><path class="cls-7" d="M213.79,106.77a8.44,8.44,0,0,0-2.7,1.83,7,7,0,0,0-1.76,3.34,6.45,6.45,0,0,0-.1,2.36,12.18,12.18,0,0,0,.74,2.57c1.25,3.62,2.74,7.91,4.39,12.67l1.26,3.66c.22.62.42,1.28.67,1.86a6.92,6.92,0,0,0,1,1.67,6.82,6.82,0,0,0,11.8-6.11c-.16-.62-.41-1.26-.61-1.88-.43-1.25-.84-2.48-1.25-3.67-1.61-4.77-3.06-9.07-4.29-12.7a13.18,13.18,0,0,0-1-2.5,7.35,7.35,0,0,0-1.53-1.8,6.9,6.9,0,0,0-3.44-1.56,8.89,8.89,0,0,0-3.25.21.49.49,0,0,0,.2-.08,4.44,4.44,0,0,1,.62-.19,6.57,6.57,0,0,1,2.46-.13,7.18,7.18,0,0,1,5.22,3.39,13.73,13.73,0,0,1,1.05,2.54c1.25,3.62,2.74,7.91,4.39,12.67l1.26,3.66c.21.63.45,1.23.63,1.92a7.3,7.3,0,0,1-7.32,9.13,7.2,7.2,0,0,1-1.79-.29,7.29,7.29,0,0,1-4.68-4.13c-.27-.65-.45-1.27-.67-1.9-.43-1.25-.84-2.48-1.25-3.67L209.63,117a12.69,12.69,0,0,1-.73-2.65,7.32,7.32,0,0,1,.15-2.47,7.1,7.1,0,0,1,1.9-3.41,6.84,6.84,0,0,1,2-1.41,4.31,4.31,0,0,1,.6-.22Z"/><path class="cls-7" d="M203.57,117.82a.72.72,0,0,0-.11-.29,6.88,6.88,0,0,1-.29-.9,12.69,12.69,0,0,1-.39-3.58,13.36,13.36,0,0,1,1.37-5.54,13.18,13.18,0,0,1,5.1-5.57A13.45,13.45,0,0,1,227,105.62a14.1,14.1,0,0,1,1.4,2.48c.38.89.68,1.8,1,2.71q.93,2.75,1.92,5.6l4,11.77a14,14,0,0,1,.57,6.35,13.47,13.47,0,0,1-25.11,4.53,24.17,24.17,0,0,1-1.61-4.11c-1.77-5.27-3.2-9.55-4.21-12.54-.47-1.46-.85-2.61-1.12-3.42l-.27-.9a1.09,1.09,0,0,1-.08-.31,1.94,1.94,0,0,1,.13.3l.32.87c.29.81.7,2,1.21,3.39l4.36,12.5a23.93,23.93,0,0,0,1.62,4,13,13,0,0,0,24.25-4.42,13.2,13.2,0,0,0-.55-6.11c-1.38-4-2.72-8-4-11.77-.67-1.9-1.3-3.77-1.91-5.6a27.45,27.45,0,0,0-1-2.68,13.72,13.72,0,0,0-1.35-2.39,13,13,0,0,0-8.54-5.28,13.29,13.29,0,0,0-8.68,1.63A13.24,13.24,0,0,0,203,113,15.22,15.22,0,0,0,203.57,117.82Z"/><path class="cls-3" d="M199.31,79.34l11.88,31.75a3.46,3.46,0,0,0,4.45,2h0a3.45,3.45,0,0,0,2-4.44L205.77,76.92a3.45,3.45,0,0,0-4.44-2h0A3.46,3.46,0,0,0,199.31,79.34Z"/><path class="cls-7" d="M199.31,79.34a2.47,2.47,0,0,1-.25-.88,3.42,3.42,0,0,1,.68-2.51,3.56,3.56,0,0,1,5-.67,3.44,3.44,0,0,1,.9,1,8,8,0,0,1,.57,1.31l.53,1.39,11.16,29.6a3.73,3.73,0,0,1-1.37,4.35,3.81,3.81,0,0,1-2.27.65,3.66,3.66,0,0,1-2.17-.84,3.92,3.92,0,0,1-1.25-1.89c-.25-.67-.5-1.33-.74-2-.49-1.31-1-2.59-1.43-3.85-1.86-5-3.53-9.53-4.94-13.34l-3.28-9c-.37-1-.66-1.85-.87-2.45l-.22-.65a.79.79,0,0,1-.05-.22.43.43,0,0,0,.1.2l.27.63.95,2.42,3.44,9,5,13.3c.47,1.26,1,2.54,1.45,3.85.25.66.49,1.32.75,2a3.46,3.46,0,0,0,1.09,1.67,3.2,3.2,0,0,0,5-3.59c-4.3-11.56-8.19-22-11-29.66-.18-.47-.35-.93-.51-1.39a9.44,9.44,0,0,0-.53-1.27,3.33,3.33,0,0,0-5.46-.37,3.41,3.41,0,0,0-.74,2.38C199.21,79,199.34,79.33,199.31,79.34Z"/><path class="cls-3" d="M239.4,193.84l11.88,31.75a3.48,3.48,0,0,0,4.45,2h0a3.46,3.46,0,0,0,2-4.45l-11.89-31.75a3.45,3.45,0,0,0-4.44-2h0A3.45,3.45,0,0,0,239.4,193.84Z"/><path class="cls-7" d="M239.4,193.84a2.47,2.47,0,0,1-.25-.88,3.42,3.42,0,0,1,.68-2.51,3.59,3.59,0,0,1,5.9.33,7.73,7.73,0,0,1,.57,1.32l.53,1.38L258,223.08a3.71,3.71,0,0,1-2.21,4.77,3.67,3.67,0,0,1-1.43.23,3.77,3.77,0,0,1-2.17-.84,3.92,3.92,0,0,1-1.25-1.89c-.25-.67-.5-1.33-.74-2-.49-1.31-1-2.6-1.43-3.85l-4.94-13.34-3.28-9-.87-2.46c-.09-.26-.16-.47-.21-.64a.86.86,0,0,1-.06-.23,1,1,0,0,1,.1.21c.08.17.16.37.27.62.23.6.56,1.41,1,2.43.82,2.16,2,5.2,3.43,9s3.15,8.3,5,13.3l1.45,3.85.75,2a3.46,3.46,0,0,0,1.09,1.67,3.2,3.2,0,0,0,5-3.6c-4.3-11.56-8.19-22-11-29.65l-.51-1.39a9.44,9.44,0,0,0-.53-1.27,3.27,3.27,0,0,0-1.89-1.49,3.34,3.34,0,0,0-3.57,1.12,3.38,3.38,0,0,0-.74,2.37C239.3,193.54,239.43,193.83,239.4,193.84Z"/><path class="cls-3" d="M287,351.07l6.4,18.73a13.26,13.26,0,0,0,16.82,8.25h0a13.25,13.25,0,0,0,8.25-16.82h0L312,342.17a13.26,13.26,0,0,0-16.83-8.25,14,14,0,0,0-1.39.57A13.45,13.45,0,0,0,287,351.07Zm11.12-11.65a7.23,7.23,0,0,1,8,4.88l6.31,18.44a7.25,7.25,0,0,1-3.5,8.89,7.07,7.07,0,0,1-9.46-3.27,6,6,0,0,1-.33-.79l-6.46-18.91a7,7,0,0,1,5.41-9.24Z"/><path class="cls-4" d="M300.11,339.35l-2.27-6.05a13.41,13.41,0,0,1,2.1-.08l2,6.57S300.53,339.14,300.11,339.35Z"/><path class="cls-4" d="M293.19,342.88l-4.37-4.42a27.85,27.85,0,0,1,2.61-2.6l2.33,6.21Z"/><path class="cls-10" d="M287,351.07l6.4,18.73a13.26,13.26,0,0,0,16.82,8.25h0a13.25,13.25,0,0,0,8.25-16.82h0L312,342.17a13.26,13.26,0,0,0-16.83-8.25,14,14,0,0,0-1.39.57A13.45,13.45,0,0,0,287,351.07Zm11.12-11.65a7.23,7.23,0,0,1,8,4.88l6.31,18.44a7.25,7.25,0,0,1-3.5,8.89,7.07,7.07,0,0,1-9.46-3.27,6,6,0,0,1-.33-.79l-6.46-18.91a7,7,0,0,1,5.41-9.24Z"/><path class="cls-7" d="M298.09,339.42a8.83,8.83,0,0,0-2.93,1.41,6.88,6.88,0,0,0-2.24,7.92c1.26,3.61,2.74,7.9,4.39,12.65l1.26,3.66a24.44,24.44,0,0,0,1.44,3.7,6.86,6.86,0,0,0,7,3.18,6.54,6.54,0,0,0,3.61-1.89,6.92,6.92,0,0,0,1.83-3.53c.59-2.66-.85-5.12-1.54-7.52-1.61-4.76-3.06-9.06-4.28-12.69-.31-.89-.57-1.78-.88-2.55a7.37,7.37,0,0,0-4.41-4.08,6.48,6.48,0,0,0-2.39-.34,6.17,6.17,0,0,1-.86,0l.22,0a4.58,4.58,0,0,1,.63-.1,6.15,6.15,0,0,1,2.45.26,7.56,7.56,0,0,1,4.66,4.14c.34.81.6,1.66.92,2.57,1.26,3.61,2.74,7.9,4.39,12.65l1.26,3.66a7.94,7.94,0,0,1,.33,4.1,7.51,7.51,0,0,1-2,3.8,7.06,7.06,0,0,1-3.89,2,7.34,7.34,0,0,1-7.53-3.42,8.77,8.77,0,0,1-.83-1.91c-.22-.64-.43-1.27-.65-1.89-.42-1.25-.83-2.48-1.24-3.67-1.61-4.76-3.06-9.06-4.28-12.69a7.11,7.11,0,0,1,4.68-9.32c.27-.07.49-.1.63-.13Z"/><path class="cls-7" d="M287,351.07a2.08,2.08,0,0,1-.12-.29c-.07-.2-.16-.53-.28-.9a14.39,14.39,0,0,1-.44-3.58,13.7,13.7,0,0,1,1.24-5.56,12.9,12.9,0,0,1,1.9-3,12.45,12.45,0,0,1,3-2.65,14.78,14.78,0,0,1,4.08-1.71,14,14,0,0,1,4.79-.22,13.44,13.44,0,0,1,9,5.2l.8,1.18.67,1.26c.18.45.36.9.55,1.35s.31.9.46,1.36l1.92,5.6c1.31,3.8,2.65,7.73,4,11.76a13.48,13.48,0,0,1-24.27,11.48,21.38,21.38,0,0,1-1.66-4.09l-4.21-12.54c-.47-1.46-.85-2.6-1.11-3.41-.12-.37-.21-.67-.28-.9a1.09,1.09,0,0,1-.08-.31,1.94,1.94,0,0,1,.13.3l.32.87c.29.81.7,1.94,1.21,3.39L293,368.12a22.5,22.5,0,0,0,1.66,4A13,13,0,0,0,318.1,361c-1.38-4-2.72-8-4-11.77-.67-1.9-1.3-3.77-1.91-5.6-.15-.46-.31-.91-.46-1.36s-.35-.87-.52-1.3-.44-.82-.65-1.23l-.76-1.13a13,13,0,0,0-8.67-5.07,13.64,13.64,0,0,0-4.64.19,13.81,13.81,0,0,0-4,1.63,12,12,0,0,0-3,2.55,12.82,12.82,0,0,0-1.89,2.94,13.54,13.54,0,0,0-1.3,5.45A16.39,16.39,0,0,0,287,351.07Z"/><path class="cls-3" d="M302.83,370.14l11.19,32a3.46,3.46,0,0,0,4.4,2.11h0a3.43,3.43,0,0,0,2.12-4.38h0l-11.19-32a3.45,3.45,0,0,0-4.4-2.12h0a3.44,3.44,0,0,0-2.12,4.39Z"/><path class="cls-7" d="M302.83,370.14a2.49,2.49,0,0,1-.23-.88,3.41,3.41,0,0,1,.74-2.5,3.57,3.57,0,0,1,5.89.46,8.06,8.06,0,0,1,.54,1.33l.5,1.39c2.7,7.68,6.41,18.21,10.51,29.84a3.71,3.71,0,0,1-2.28,4.72,3.64,3.64,0,0,1-1.5.2,3.8,3.8,0,0,1-2.15-.88,3.93,3.93,0,0,1-1.2-1.92c-.24-.67-.47-1.34-.7-2l-1.32-3.9c-1.75-5.05-3.32-9.6-4.64-13.44s-2.35-6.89-3.09-9.08c-.34-1-.62-1.87-.82-2.47-.08-.26-.14-.48-.2-.65a.86.86,0,0,1-.05-.23,1,1,0,0,1,.1.21l.25.63.91,2.45,3.24,9c1.36,3.83,3,8.37,4.75,13.41.44,1.26.9,2.55,1.36,3.88.23.66.47,1.32.71,2a3.42,3.42,0,0,0,1.06,1.7A3.2,3.2,0,0,0,320.3,400c-4.05-11.65-7.71-22.2-10.38-29.89l-.48-1.4a8.24,8.24,0,0,0-.49-1.28,3.35,3.35,0,0,0-5.46-.53,3.43,3.43,0,0,0-.79,2.36C302.74,369.84,302.86,370.13,302.83,370.14Z"/><path class="cls-3" d="M265.65,290.25l6.52,19.06A13.26,13.26,0,0,0,289,317.56h0a13.25,13.25,0,0,0,8.25-16.82h0l-6.51-19.05a13.25,13.25,0,0,0-25.08,8.57Zm10.23-11.05a7.07,7.07,0,0,1,9,4.37v0l6.46,18.91A7.06,7.06,0,0,1,278,307.08h0l-6.46-18.91A7.06,7.06,0,0,1,275.88,279.2Z"/><path class="cls-4" d="M278.91,278.86l-2.27-6.05a13.41,13.41,0,0,1,2.1-.08l2,6.58S279.33,278.65,278.91,278.86Z"/><path class="cls-4" d="M272,282.39,267.62,278a27.85,27.85,0,0,1,2.61-2.6l2.33,6.22Z"/><path class="cls-10" d="M265.65,290.25l6.52,19.06A13.26,13.26,0,0,0,289,317.56h0a13.25,13.25,0,0,0,8.25-16.82h0l-6.51-19.05a13.25,13.25,0,0,0-25.08,8.57Zm10.23-11.05a7.07,7.07,0,0,1,9,4.37v0l6.46,18.91A7.06,7.06,0,0,1,278,307.08h0l-6.46-18.91A7.06,7.06,0,0,1,275.88,279.2Z"/><path class="cls-7" d="M275.88,279.2a8.44,8.44,0,0,0-2.7,1.83,7.08,7.08,0,0,0-1.87,5.7,12.82,12.82,0,0,0,.75,2.57c1.25,3.62,2.74,7.91,4.39,12.67l1.26,3.66c.22.62.41,1.28.67,1.86a6,6,0,0,0,1,1.67,6.81,6.81,0,0,0,12-4.11,6.42,6.42,0,0,0-.21-1.95c-.15-.62-.41-1.26-.61-1.88l-1.24-3.67c-1.61-4.77-3.06-9.07-4.29-12.7a12.46,12.46,0,0,0-1-2.49,6.82,6.82,0,0,0-1.53-1.81,7.08,7.08,0,0,0-3.43-1.56,8.68,8.68,0,0,0-3.25.21.49.49,0,0,0,.2-.08,4.31,4.31,0,0,1,.61-.19,6.63,6.63,0,0,1,2.47-.13,7.12,7.12,0,0,1,5.21,3.39,13.11,13.11,0,0,1,1.06,2.54c1.25,3.62,2.74,7.91,4.38,12.67.42,1.19.84,2.41,1.27,3.66.2.63.45,1.23.63,1.92a7.31,7.31,0,0,1-11.38,7.73,7.27,7.27,0,0,1-1.31-1.23,6.75,6.75,0,0,1-1.1-1.79c-.28-.65-.45-1.27-.68-1.9-.42-1.25-.84-2.47-1.24-3.67-1.61-4.77-3.06-9.07-4.29-12.7a13.49,13.49,0,0,1-.72-2.65,6.85,6.85,0,0,1,.15-2.47,7,7,0,0,1,3.92-4.82c.2-.08.4-.16.6-.22A1.06,1.06,0,0,1,275.88,279.2Z"/><path class="cls-7" d="M265.65,290.25a2.49,2.49,0,0,1-.11-.29c-.07-.23-.16-.53-.28-.9a13.08,13.08,0,0,1-.4-3.58,13.44,13.44,0,0,1,1.38-5.53,13.12,13.12,0,0,1,5.11-5.57,13.44,13.44,0,0,1,17.78,3.68,14.15,14.15,0,0,1,1.41,2.48c.38.89.68,1.8,1,2.71l1.92,5.6,4,11.77A13.69,13.69,0,0,1,298,307a13.47,13.47,0,0,1-25,4.56,24.21,24.21,0,0,1-1.62-4.11c-1.76-5.27-3.2-9.55-4.2-12.54-.48-1.46-.85-2.61-1.12-3.42l-.28-.9c0-.1-.06-.21-.08-.31a1,1,0,0,1,.13.3c.09.22.19.51.33.87.29.81.69,1.95,1.21,3.39l4.36,12.5a23.11,23.11,0,0,0,1.62,4,13,13,0,0,0,24.2-4.36,13.47,13.47,0,0,0-.55-6.11c-1.38-4-2.72-8-4-11.77-.67-1.9-1.3-3.77-1.91-5.6a27.45,27.45,0,0,0-1-2.68,13.72,13.72,0,0,0-1.35-2.39,13,13,0,0,0-17.22-3.64,13.13,13.13,0,0,0-5,5.34,13.43,13.43,0,0,0-1.43,5.41A15.48,15.48,0,0,0,265.65,290.25Z"/><path class="cls-3" d="M261.4,251.77l11.88,31.75a3.45,3.45,0,0,0,4.44,2h0a3.44,3.44,0,0,0,2-4.43h0l-11.88-31.75a3.46,3.46,0,0,0-4.44-2h0A3.45,3.45,0,0,0,261.4,251.77Z"/><path class="cls-7" d="M261.4,251.77a2.48,2.48,0,0,1-.26-.88,3.49,3.49,0,0,1,.69-2.51,3.54,3.54,0,0,1,3.81-1.27,3.6,3.6,0,0,1,2.09,1.6,10.17,10.17,0,0,1,.57,1.31l.52,1.39L280,281a3.7,3.7,0,0,1-5.81,4.16,3.94,3.94,0,0,1-1.24-1.89c-.25-.67-.5-1.33-.74-2l-1.44-3.85-4.93-13.34c-1.38-3.77-2.49-6.84-3.29-9l-.86-2.45-.22-.65a.79.79,0,0,1-.05-.22.75.75,0,0,1,.1.2l.26.63c.24.59.56,1.4,1,2.42l3.44,9c1.44,3.8,3.14,8.31,5,13.3.47,1.26.95,2.54,1.45,3.85.24.66.49,1.32.74,2a3.55,3.55,0,0,0,1.1,1.67,3.19,3.19,0,0,0,5-3.59c-4.29-11.56-8.18-22-11-29.66l-.51-1.39a8.26,8.26,0,0,0-.52-1.27,3.35,3.35,0,0,0-6.2,2A6,6,0,0,0,261.4,251.77Z"/><path class="cls-3" d="M282.6,312.26,294.48,344a3.45,3.45,0,0,0,4.44,2h0a3.46,3.46,0,0,0,2-4.44L289,309.81a3.46,3.46,0,0,0-4.44-2h0A3.44,3.44,0,0,0,282.6,312.26Z"/><path class="cls-7" d="M282.6,312.26a2.47,2.47,0,0,1-.25-.88,3.42,3.42,0,0,1,.68-2.51,3.54,3.54,0,0,1,3.81-1.27,3.6,3.6,0,0,1,2.09,1.6,9,9,0,0,1,.57,1.31l.53,1.39c2.87,7.61,6.8,18.06,11.16,29.6a3.7,3.7,0,0,1-5.82,4.16,3.94,3.94,0,0,1-1.24-1.89c-.25-.67-.5-1.33-.74-2L292,337.93l-5-13.34-3.28-9q-.56-1.54-.87-2.46c-.09-.25-.16-.46-.22-.64a.81.81,0,0,1,0-.22.43.43,0,0,0,.1.2l.26.63c.24.59.56,1.4,1,2.42l3.44,9,5,13.3c.47,1.26,1,2.54,1.45,3.85.24.66.49,1.32.74,2a3.55,3.55,0,0,0,1.1,1.67,3.19,3.19,0,0,0,5-3.59l-11-29.66c-.18-.47-.35-.94-.52-1.39a8.26,8.26,0,0,0-.52-1.27,3.35,3.35,0,0,0-6.2,2A5.84,5.84,0,0,0,282.6,312.26Z"/><path class="cls-3" d="M218.2,133.35l11.88,31.75a3.46,3.46,0,0,0,4.44,2h0a3.46,3.46,0,0,0,2-4.44L224.63,130.9a3.45,3.45,0,0,0-4.44-2h0a3.43,3.43,0,0,0-2,4.44Z"/><path class="cls-7" d="M218.2,133.35a2.47,2.47,0,0,1-.25-.88,3.42,3.42,0,0,1,.68-2.51,3.59,3.59,0,0,1,5.9.33,11,11,0,0,1,.57,1.32l.53,1.38,11.16,29.6a3.72,3.72,0,0,1-2.21,4.78,3.91,3.91,0,0,1-1.44.22,3.79,3.79,0,0,1-2.16-.84,3.92,3.92,0,0,1-1.25-1.89c-.25-.67-.5-1.33-.74-2-.49-1.31-1-2.6-1.43-3.85-1.86-5-3.53-9.53-4.94-13.34l-3.28-9-.87-2.46-.22-.64a.59.59,0,0,1-.05-.23,1,1,0,0,1,.1.21c.07.17.16.37.26.63l1,2.42,3.44,9c1.44,3.8,3.15,8.3,5,13.3.47,1.25.95,2.54,1.45,3.85.24.65.49,1.32.75,2a3.46,3.46,0,0,0,1.09,1.67,3.2,3.2,0,0,0,5-3.6c-4.3-11.56-8.19-22-11-29.65-.18-.47-.35-.94-.52-1.39a8.26,8.26,0,0,0-.52-1.27,3.31,3.31,0,0,0-5.46-.37,3.38,3.38,0,0,0-.74,2.37C218.1,133.05,218.23,133.34,218.2,133.35Z"/><path class="cls-5" d="M287.61,269.91l-4.67,3.32a13.34,13.34,0,0,1-3.14,18.58l-14.27,10.06,3.33,4.67,14.26-10.06A19.07,19.07,0,0,0,287.61,269.91Z"/><g class="cls-11"><path d="M287.61,269.91l-4.67,3.32a13.34,13.34,0,0,1-3.14,18.58l-14.27,10.06,3.33,4.67,14.26-10.06A19.07,19.07,0,0,0,287.61,269.91Z"/></g><path class="cls-7" d="M241.82,251.89a8,8,0,0,1-1.1-.81l-2.89-2.35c-2.44-2-5.8-4.75-9.55-7.74s-7.19-5.67-9.67-7.6l-2.93-2.3a7.14,7.14,0,0,1-1-.9,7.36,7.36,0,0,1,1.16.74c.72.5,1.76,1.24,3,2.17,2.54,1.86,6,4.49,9.77,7.49s7.08,5.79,9.46,7.86c1.19,1,2.14,1.88,2.79,2.47A6.29,6.29,0,0,1,241.82,251.89Z"/><path class="cls-7" d="M235.18,254.47a16.6,16.6,0,0,1-2.82,0l-6.79-.2-6.8-.06a15.62,15.62,0,0,1-2.82-.11,15.65,15.65,0,0,1,2.82-.26c1.74-.08,4.15-.13,6.81-.08s5.06.19,6.8.34A14,14,0,0,1,235.18,254.47Z"/><path class="cls-7" d="M285.66,202.4c.14,0-.54,7.79-1.51,17.37s-1.89,17.34-2,17.33.54-7.8,1.51-17.38S285.52,202.39,285.66,202.4Z"/><path class="cls-7" d="M301.36,217.4a73.63,73.63,0,0,1-5.81,6.42,72.15,72.15,0,0,1-6.17,6.07,72,72,0,0,1,5.8-6.42A72.24,72.24,0,0,1,301.36,217.4Z"/></g><g id="freepik--Floor--inject-4"><path class="cls-7" d="M484.93,462.57c0,.14-105.19.26-234.92.26s-234.94-.12-234.94-.26,105.17-.26,234.94-.26S484.93,462.42,484.93,462.57Z"/></g><g id="freepik--Character--inject-4"><path class="cls-5" d="M365.15,176.72a13.42,13.42,0,0,1-.3-3.22,4.37,4.37,0,0,1,1.27-2.91c1-.91,2.45-1.09,3.66-1.69a11.37,11.37,0,0,0,3.69-3.58,17.45,17.45,0,0,1,.54,5.57,8,8,0,0,1-2.24,5,5.29,5.29,0,0,1-5.17,1.35"/><g class="cls-6"><path d="M365.15,176.72a13.42,13.42,0,0,1-.3-3.22,4.37,4.37,0,0,1,1.27-2.91c1-.91,2.45-1.09,3.66-1.69a11.37,11.37,0,0,0,3.69-3.58,17.45,17.45,0,0,1,.54,5.57,8,8,0,0,1-2.24,5,5.29,5.29,0,0,1-5.17,1.35"/></g><path class="cls-7" d="M371.36,170.07a4.92,4.92,0,0,1-1,1.82,5.24,5.24,0,0,1-1.5,1.43,19.36,19.36,0,0,0,1.34-1.55C370.89,170.88,371.3,170.05,371.36,170.07Z"/><path class="cls-7" d="M371.82,171.63a5,5,0,0,1-2.68,1.57,13.73,13.73,0,0,1,1.36-.74A12.75,12.75,0,0,1,371.82,171.63Z"/><path class="cls-5" d="M364.47,176.64a4.21,4.21,0,0,1,3-3,19.61,19.61,0,0,1,4.38-.62,7,7,0,0,0,4.1-1.5,9.31,9.31,0,0,1-1.83,5.59,7.3,7.3,0,0,1-5.05,2.89,6.07,6.07,0,0,1-5.3-2.23"/><path class="cls-7" d="M371.59,175.36a6.24,6.24,0,0,1-.95.32c-.6.18-1.41.44-2.3.75s-1.68.62-2.25.85a8.19,8.19,0,0,1-.94.35,3.76,3.76,0,0,1,.88-.48c.56-.27,1.35-.6,2.24-.92a23.36,23.36,0,0,1,2.33-.69A4.12,4.12,0,0,1,371.59,175.36Z"/><path class="cls-7" d="M371.23,177.06a5.6,5.6,0,0,1-1,.06c-.6,0-1.44.06-2.36.15s-1.75.22-2.35.33a5.6,5.6,0,0,1-1,.14,3.85,3.85,0,0,1,1-.28,18.58,18.58,0,0,1,2.35-.39,19,19,0,0,1,2.38-.1A4.44,4.44,0,0,1,371.23,177.06Z"/><path class="cls-13" d="M361.82,173.72,380.21,204a10.94,10.94,0,0,1-3.65,15h0a10.93,10.93,0,0,1-14.68-3.08c-1.82-2.6-3.32-4.78-3.32-4.78s-7.88,4-13.1-3c-2.52-3.38-7.14-10.76-11.25-17.5a16.37,16.37,0,0,1,5-22.21h0a16.18,16.18,0,0,1,22.36,4.88Z"/><path class="cls-14" d="M358.57,211.15a20.33,20.33,0,0,0,7.32-9.33s1.52,6.68-6,11.17Z"/><path class="cls-7" d="M339.29,194.28a1.28,1.28,0,0,0,1.72.31,1.19,1.19,0,0,0,.4-1.63l0,0a1.24,1.24,0,0,0-1.71-.31,1.19,1.19,0,0,0-.4,1.65Z"/><path class="cls-7" d="M338.31,193.08c.23,0,.58-1.08,1.67-1.87s2.28-.82,2.3-1-.28-.24-.81-.24a3.42,3.42,0,0,0-2,.66,3.23,3.23,0,0,0-1.2,1.66C338.15,192.75,338.21,193.07,338.31,193.08Z"/><path class="cls-7" d="M350.19,187.05a1.25,1.25,0,0,0,1.71.31,1.19,1.19,0,0,0,.4-1.63l0,0a1.24,1.24,0,0,0-1.71-.31,1.19,1.19,0,0,0-.4,1.63Z"/><path class="cls-7" d="M349.16,185.52c.22,0,.58-1.08,1.66-1.87s2.29-.82,2.31-1-.29-.24-.82-.24a3.35,3.35,0,0,0-2,.66,3.25,3.25,0,0,0-1.21,1.66C349,185.19,349.05,185.51,349.16,185.52Z"/><path class="cls-7" d="M351.07,196.46a8.7,8.7,0,0,0-2,1c-.3.17-.6.31-.79.15a1.77,1.77,0,0,1-.41-1l-.72-2.72A43.2,43.2,0,0,0,345,187a46.73,46.73,0,0,0,1.62,7c.26.95.51,1.84.75,2.7A2.06,2.06,0,0,0,348,198a.86.86,0,0,0,.75.07,2.33,2.33,0,0,0,.52-.27A9.06,9.06,0,0,0,351.07,196.46Z"/><path class="cls-7" d="M354.81,194.89c-.18.11.68,1.3.27,2.87s-1.75,2.35-1.64,2.53.45,0,1-.35a3.65,3.65,0,0,0,1.42-2,3.18,3.18,0,0,0-.3-2.36C355.23,195,354.89,194.82,354.81,194.89Z"/><path class="cls-7" d="M346.49,182.12c.37.1,1-1.08,2.1-2.25s2.18-1.94,2-2.31c-.08-.16-.49-.19-1.07,0a5.35,5.35,0,0,0-3.16,3.47C346.25,181.66,346.31,182.06,346.49,182.12Z"/><path class="cls-7" d="M335.16,189c.38.19,1.35-.5,2.64-1s2.45-.68,2.6-1.07c.05-.18-.22-.41-.8-.51a4.9,4.9,0,0,0-4.22,1.65C335,188.54,335,188.89,335.16,189Z"/><path class="cls-7" d="M348.59,171.65h.06a6.89,6.89,0,0,1,4.69,2.1l.12.13c1.74,1.82,3.18,3.91,4.94,5.71a11.32,11.32,0,0,0,6.45,3.66c1,.12,2.4-.27,2.42-1.31a2.13,2.13,0,0,0-.42-1.11c-3.16-5.15-5-10.44-8.68-15.53a5.32,5.32,0,0,0-4.32-2.21c-1.63,0-3.51.16-4.29,1.59s-.7,4.76-.94,6.37"/><path class="cls-13" d="M361.85,178.77c.08-.14,3.82-5,7.18,0s-2.31,7.31-2.41,7.17S361.85,178.77,361.85,178.77Z"/><path class="cls-14" d="M366.86,183h.32a1,1,0,0,0,.65-.42,2.55,2.55,0,0,0-.31-2.59,3.35,3.35,0,0,0-1.08-1.07,1.18,1.18,0,0,0-1.1-.22.53.53,0,0,0-.35.58c0,.18.13.26.11.28s-.16,0-.26-.24a.66.66,0,0,1,0-.44.77.77,0,0,1,.4-.45,1.45,1.45,0,0,1,1.42.16,3.63,3.63,0,0,1,1.23,1.17,2.69,2.69,0,0,1,.19,3,1.08,1.08,0,0,1-.87.4A.65.65,0,0,1,366.86,183Z"/><path class="cls-8" d="M361.09,170a1.12,1.12,0,0,1-.34.38,2.39,2.39,0,0,1-1.28.5,3.49,3.49,0,0,1-2-.45,9.87,9.87,0,0,1-2-1.52,9.9,9.9,0,0,0-1.93-1.48,3.25,3.25,0,0,0-1.88-.43,2.29,2.29,0,0,0-1.24.43c-.13.1-.25.21-.37.32a.94.94,0,0,1,.31-.4,2.43,2.43,0,0,1,1.28-.53,3.48,3.48,0,0,1,2,.4,9.82,9.82,0,0,1,2,1.51,10.34,10.34,0,0,0,1.92,1.5,3.31,3.31,0,0,0,1.87.47,2.5,2.5,0,0,0,1.25-.4A3.92,3.92,0,0,0,361.09,170Z"/><path class="cls-5" d="M362,171.65l-27.19,20,5,8s10.19-5.8,13.52-8.65,11.21-14.29,11.21-14.29Zm-20.2,25.06a3.82,3.82,0,1,1,3.08-4.44h0A3.83,3.83,0,0,1,341.8,196.71Zm10.85-7.94a3.81,3.81,0,1,1,3.08-4.42h0a3.81,3.81,0,0,1-3.06,4.42Z"/><path class="cls-8" d="M365.22,174.49c0,.93-.14,1.87-.68,2.19,0,0-3.08-4-7.92-3.33a39.83,39.83,0,0,0-14,5.56c-4,2.66-7.92,5.51-8.28,6.42s-.91,4.24-.44,5a8.73,8.73,0,0,1,.72,1.55,2.67,2.67,0,0,1-3-.09c-.76-.52-3.64-5.64-3.55-7.46.61-12,26.12-18.82,28.49-18.62a5.71,5.71,0,0,1,6.28,2.3c.17.27,1,1.92,1.6,3.1A7.48,7.48,0,0,1,365.22,174.49Z"/><path class="cls-8" d="M338.19,161.82s-8.58,3.76-10.12,11.56c-1.23,6.23,1.5,8.35,1.5,8.35L360,168S354.93,155.6,338.19,161.82Z"/><path class="cls-7" d="M358.68,165.83h-1.39a29.75,29.75,0,0,0-3.77.28,26.75,26.75,0,0,0-5.44,1.36,57.77,57.77,0,0,0-6.29,2.78,39.72,39.72,0,0,0-10,7.41,33.81,33.81,0,0,0-2.53,2.82l-.64.81c-.15.18-.24.27-.24.27a31.59,31.59,0,0,1,3.3-4,38.44,38.44,0,0,1,10-7.5,56.28,56.28,0,0,1,6.32-2.77,26,26,0,0,1,5.5-1.29,28.24,28.24,0,0,1,3.79-.22h1Z"/><path class="cls-7" d="M333.77,190.42a1.86,1.86,0,0,1-.35-.22,7.56,7.56,0,0,1-.87-.72,12.27,12.27,0,0,1-2.33-2.89,12.75,12.75,0,0,1-1.37-3.46,8.59,8.59,0,0,1-.19-1.11,1.41,1.41,0,0,1,0-.41s.11.58.35,1.49a14.2,14.2,0,0,0,1.41,3.39,13.69,13.69,0,0,0,2.25,2.89C333.32,190,333.79,190.39,333.77,190.42Z"/><path class="cls-7" d="M336.8,183a5.45,5.45,0,0,1-.86-.73,11.67,11.67,0,0,1-1.72-2.11,11.8,11.8,0,0,1-1.19-2.45,5.18,5.18,0,0,1-.3-1.09,8.85,8.85,0,0,1,.43,1,15.42,15.42,0,0,0,1.23,2.39,14.7,14.7,0,0,0,1.65,2.12A7,7,0,0,1,336.8,183Z"/><path class="cls-7" d="M343.85,178.12l-.47-1.09a15.63,15.63,0,0,0-1.37-2.51,18.23,18.23,0,0,0-1.78-2.24c-.5-.54-.83-.86-.81-.88a4.82,4.82,0,0,1,.91.78,14.06,14.06,0,0,1,1.85,2.22,13,13,0,0,1,1.33,2.57c.13.35.22.63.28.83A1.65,1.65,0,0,1,343.85,178.12Z"/><path class="cls-7" d="M352.22,174.39a10.5,10.5,0,0,1-.49-1.08,18.44,18.44,0,0,0-1.38-2.5,18.15,18.15,0,0,0-1.77-2.24,7.39,7.39,0,0,1-.8-.88,6.15,6.15,0,0,1,.91.78,15.08,15.08,0,0,1,1.83,2.23,14.42,14.42,0,0,1,1.34,2.55A4.58,4.58,0,0,1,352.22,174.39Z"/><path class="cls-7" d="M362.21,174.73s-.12-.58-.38-1.51a13.79,13.79,0,0,0-3.84-6.3c-.7-.65-1.19-1-1.17-1a1.65,1.65,0,0,1,.36.22,10.45,10.45,0,0,1,.91.7,12.42,12.42,0,0,1,3.88,6.38,10.52,10.52,0,0,1,.21,1.12A2.56,2.56,0,0,1,362.21,174.73Z"/><path class="cls-7" d="M343.63,169.4A12,12,0,0,0,343,168a9.63,9.63,0,0,0-5.61-4.71c-.92-.29-1.52-.34-1.52-.39h.43a6.27,6.27,0,0,1,1.13.22,9.19,9.19,0,0,1,5.7,4.79,6.6,6.6,0,0,1,.42,1.07A1.73,1.73,0,0,1,343.63,169.4Z"/><path class="cls-7" d="M352.6,166.22s-.29-.51-.83-1.28a11.65,11.65,0,0,0-2.56-2.59,11.35,11.35,0,0,0-3.26-1.64c-.9-.28-1.48-.35-1.47-.39a1.41,1.41,0,0,1,.41,0,6.91,6.91,0,0,1,1.1.22,10.64,10.64,0,0,1,3.34,1.61,10.36,10.36,0,0,1,2.56,2.68,6.49,6.49,0,0,1,.55,1A1.68,1.68,0,0,1,352.6,166.22Z"/><path class="cls-7" d="M332.11,166.06v1.38a14.19,14.19,0,0,0,.56,3.24,13.71,13.71,0,0,0,1.35,3c.44.72.77,1.14.74,1.16s-.1-.09-.25-.27a9.53,9.53,0,0,1-.61-.81,11.57,11.57,0,0,1-1.93-6.3,8.34,8.34,0,0,1,0-1A3.29,3.29,0,0,1,332.11,166.06Z"/><path class="cls-7" d="M328.85,170.74a8.69,8.69,0,0,1,0,1.25,15.88,15.88,0,0,0,.28,3,16.87,16.87,0,0,0,.81,2.88c.28.72.48,1.15.45,1.16s-.07-.09-.18-.28a8.86,8.86,0,0,1-.4-.82,12.8,12.8,0,0,1-.89-2.9,14.39,14.39,0,0,1-.22-3,6.26,6.26,0,0,1,.08-.92A1.16,1.16,0,0,1,328.85,170.74Z"/><path class="cls-7" d="M337.79,182.21a6.36,6.36,0,0,0,3.77,1,1.84,1.84,0,0,0,.89-.2.92.92,0,0,0,.5-.73c0-.57-.64-.89-1.18-1.06a6.29,6.29,0,0,0,1.93-.31,2.1,2.1,0,0,0,1.32-1.36,1.41,1.41,0,0,0-.86-1.64A57.3,57.3,0,0,0,337.79,182.21Z"/><path class="cls-5" d="M432.5,238.69s-27.26-38.69-31.08-41-8.95-1.18-12,.24c-2.09,1-6.86,3.95-6.86,3.95l-4.68-4.66-18.72,16.55,3.09,5.66-3.15,5.28c-.09.09-.2.21-.34.38a10.65,10.65,0,0,0-1.63,2.88l-.25.41.07.11a14.65,14.65,0,0,0-.72,5.17c.19,6.27,7,38.16,7,38.16l-7.12,4.86L360.37,290s21.09-7.08,20.58-14.14a197.81,197.81,0,0,0-3.51-20.93l9.84,13.32c.39,2.68,4.57,21.37,4.57,21.37l3,1.22,58.27-3.09,1.74-3.74Z"/><path class="cls-7" d="M362.89,236.41a11.85,11.85,0,0,1,1.09,1.15c.66.76,1.61,1.89,2.76,3.3,2.29,2.82,5.37,6.78,8.72,11.19s6.33,8.45,8.47,11.39c1,1.42,1.85,2.59,2.5,3.49a8.82,8.82,0,0,1,.85,1.33,9.59,9.59,0,0,1-1-1.21l-2.63-3.4-8.59-11.29-8.6-11.28-2.63-3.39A7.4,7.4,0,0,1,362.89,236.41Z"/><g class="cls-6"><path d="M434.57,246.2c-7.07,1-14.2-.41-21.25-1.45a236.5,236.5,0,0,0-35.47-2.52,5.48,5.48,0,0,0-3.1.63c-2.14,1.42-14.33,2.41-16.58,3.66l1.07,5.6c.17-.08,2.46.71,3.7.85,9.72,1.15,12.81-4.12,13.57-4.27,1.11-.21,2.5.8,3.55,1.19,7.67,2.82,15.73,4.37,23.75,5.91,6.65,1.28,13.39,2.56,20.13,2,3.12-.28,6.36-1,8.71-3.11S436.16,248.9,434.57,246.2Z"/></g><path class="cls-5" d="M395.41,217l10.68,15.94-21.23-.84L386,247.8s36.58,8,42.16,6c6.34-2.2,6.06-5,6.44-8.62s-6.57-14.25-10.59-21.13-20.31-30.72-29-27.69C395,196.37,386.56,202.9,395.41,217Z"/><path class="cls-5" d="M395.41,217l10.68,15.94-21.23-.84L386,247.8s36.58,8,42.16,6c6.34-2.2,6.06-5,6.44-8.62s-6.57-14.25-10.59-21.13"/><path class="cls-7" d="M424.05,224.06a2.35,2.35,0,0,1,.2.28l.54.87,2.06,3.34c.89,1.45,2,3.22,3.19,5.31a69.21,69.21,0,0,1,3.8,7.3,21.8,21.8,0,0,1,.78,2.23,7.22,7.22,0,0,1,.2,1.22v.65l-.06.61a24.15,24.15,0,0,1-.32,2.54,5.93,5.93,0,0,1-1.1,2.47,10.4,10.4,0,0,1-4.72,3,8.53,8.53,0,0,1-2.92.45c-1,0-2,0-3-.1-4-.28-8.22-.9-12.54-1.59s-8.78-1.51-13.34-2.4Q391.29,249.16,386,248h-.18v-.19c-.41-5.49-.8-10.75-1.16-15.7v-.27h.26l21.22.9L406,233l-7.75-11.72-2.08-3.19-.53-.83a1.78,1.78,0,0,1-.17-.3,1.39,1.39,0,0,1,.21.27l.57.81,2.16,3.13,7.89,11.63.2.29h-.36l-21.23-.79.25-.25c.38,5,.78,10.21,1.2,15.7l-.2-.22c3.51.75,7.14,1.49,10.84,2.21,4.55.89,9,1.71,13.32,2.42s8.49,1.31,12.49,1.61c1,.08,2,.12,2.95.11a8.22,8.22,0,0,0,2.78-.41,10,10,0,0,0,4.53-2.85c1.09-1.37,1.21-3.15,1.37-4.79a8.56,8.56,0,0,0-.88-4.53,73.55,73.55,0,0,0-3.71-7.3c-1.19-2.09-2.25-3.89-3.11-5.35l-2-3.39c-.2-.37-.37-.66-.49-.89A3.32,3.32,0,0,0,424.05,224.06Z"/><g class="cls-6"><path d="M406.12,232.8A19.61,19.61,0,0,1,418,231.22a6.48,6.48,0,0,1,4,2.11c.33.44.53,1.11.12,1.47s-1.14.78-1.59.57a30.16,30.16,0,0,0-14.48-2.57"/></g><path class="cls-7" d="M421.05,235.62c0,.08-.87-.37-2.3-.86a27.48,27.48,0,0,0-5.74-1.25c-2.29-.27-4.39-.33-5.91-.4a12.68,12.68,0,0,1-2.46-.18,10.17,10.17,0,0,1,2.46-.18,44.54,44.54,0,0,1,6,.25,21.57,21.57,0,0,1,5.81,1.42A7.06,7.06,0,0,1,421.05,235.62Z"/><path class="cls-7" d="M374.38,271.32a22.67,22.67,0,0,0-5.74-.64A23.26,23.26,0,0,0,363,272a11.65,11.65,0,0,1,11.36-.66Z"/><g class="cls-6"><path d="M363.1,271.84a13.83,13.83,0,0,1,8.07-3.22,5.08,5.08,0,0,1,3.19.66c.42.29.8.84.56,1.3s-1.06.45-1.65.31a16.53,16.53,0,0,0-10.16.81"/></g><path class="cls-7" d="M394,196.49c.05.07-.6.44-1.33,1.33a8.76,8.76,0,0,0-1.79,4.06,17.18,17.18,0,0,0,0,4.53,9.43,9.43,0,0,1,.17,1.91,5.8,5.8,0,0,1-.52-1.86,13.27,13.27,0,0,1-.14-4.66,8,8,0,0,1,2-4.22A3.3,3.3,0,0,1,394,196.49Z"/><path class="cls-7" d="M366.12,218.38a10.57,10.57,0,0,1-2.61-3.15,10.8,10.8,0,0,1-1.68-3.72A33.86,33.86,0,0,1,364,215,38.24,38.24,0,0,1,366.12,218.38Z"/><path class="cls-7" d="M372,214.66a15.9,15.9,0,0,1-3.17-3.33,15.27,15.27,0,0,1-2.49-3.86,30.58,30.58,0,0,1,2.89,3.54A31.57,31.57,0,0,1,372,214.66Z"/><path class="cls-7" d="M377.13,209.93c-.14.07-1.05-1.78-2.72-3.64s-3.36-3-3.28-3.15A9.61,9.61,0,0,1,374.8,206,9.38,9.38,0,0,1,377.13,209.93Z"/><path class="cls-7" d="M381.11,204.57a33.88,33.88,0,0,1-2.68-2.68,28.36,28.36,0,0,1-2.73-2.64,9.38,9.38,0,0,1,3.09,2.27A9.13,9.13,0,0,1,381.11,204.57Z"/><g class="cls-6"><path d="M363.17,219.2a13.16,13.16,0,0,0,6.07-.56,21.82,21.82,0,0,0,5.25-2.83,18.65,18.65,0,0,0,5.74-5.92,17.43,17.43,0,0,0,1.94-6.54,19.36,19.36,0,0,0-3.19,4.38c-3.6,5.66-9.22,9.23-15.75,11.46"/></g><path class="cls-7" d="M382.57,201.89a5.13,5.13,0,0,1-.41,1,23.59,23.59,0,0,1-1.43,2.61,34.2,34.2,0,0,1-6.33,7.5,29.71,29.71,0,0,1-8.24,5.3,13.22,13.22,0,0,1-1.59.59c-.41.14-.82.26-1.24.36a4.9,4.9,0,0,1-1.07.19c0-.1,1.49-.44,3.75-1.47a32.48,32.48,0,0,0,8.05-5.36,38.46,38.46,0,0,0,6.36-7.3C381.81,203.24,382.48,201.84,382.57,201.89Z"/><path class="cls-7" d="M416.81,259.13a3.35,3.35,0,0,1-.57.82c-.39.51-1,1.23-1.73,2.1-1.49,1.73-3.66,4.06-6.19,6.47s-5,4.45-6.8,5.86c-.91.7-1.65,1.25-2.18,1.62a4.65,4.65,0,0,1-.85.53,29.37,29.37,0,0,1,2.8-2.43c1.75-1.48,4.14-3.55,6.67-6s4.72-4.68,6.28-6.35A31.78,31.78,0,0,1,416.81,259.13Z"/><path class="cls-7" d="M390.09,206.11a10.26,10.26,0,0,1-.92,1.34c-.61.86-1.56,2.05-2.79,3.48a73.6,73.6,0,0,1-23.13,17.86c-1.69.83-3.08,1.44-4.06,1.82a10.49,10.49,0,0,1-1.54.56,8.7,8.7,0,0,1,1.46-.74c.95-.43,2.32-1.1,4-2a84.75,84.75,0,0,0,12.31-7.86,82.54,82.54,0,0,0,10.71-9.93c1.25-1.38,2.24-2.54,2.9-3.35A9.12,9.12,0,0,1,390.09,206.11Z"/><path class="cls-7" d="M397.25,219.84a9.44,9.44,0,0,1-1,1c-.69.63-1.71,1.52-3,2.61-2.55,2.17-6.15,5.08-10.25,8.13s-7.93,5.65-10.75,7.46c-1.41.91-2.55,1.62-3.36,2.1a7.55,7.55,0,0,1-1.28.7,7.1,7.1,0,0,1,1.17-.87l3.27-2.23c2.76-1.89,6.55-4.53,10.64-7.57s7.72-5.9,10.33-8l3.08-2.48A6.84,6.84,0,0,1,397.25,219.84Z"/><path class="cls-7" d="M407.38,203.1a27.84,27.84,0,0,0-7.06,4,28.56,28.56,0,0,0-5.23,6.21,7.76,7.76,0,0,1,1.05-2.19,18.36,18.36,0,0,1,8.9-7.39A7.32,7.32,0,0,1,407.38,203.1Z"/><path class="cls-7" d="M419.14,216.34c0,.08-1.13.27-2.92.72a38.71,38.71,0,0,0-13.06,6c-1.51,1.06-2.4,1.79-2.45,1.73s.17-.24.55-.6.95-.85,1.69-1.43a32.27,32.27,0,0,1,13.19-6c.91-.18,1.66-.29,2.18-.34A2.27,2.27,0,0,1,419.14,216.34Z"/><path class="cls-7" d="M427.38,228.83c0,.08-1.28-.18-3.35-.35a32.87,32.87,0,0,0-15.82,2.58c-1.9.82-3,1.47-3.07,1.39a3.23,3.23,0,0,1,.74-.53,20,20,0,0,1,2.18-1.19,28.94,28.94,0,0,1,16-2.61,18.35,18.35,0,0,1,2.44.44A2.72,2.72,0,0,1,427.38,228.83Z"/><path class="cls-7" d="M432.27,250.57a24.64,24.64,0,0,0-10.18-13.87,8,8,0,0,1,2.27,1.28,20.24,20.24,0,0,1,7.37,10A8.2,8.2,0,0,1,432.27,250.57Z"/><path class="cls-7" d="M411.81,252.64c-.08,0,.26-1.1.59-2.87a27.75,27.75,0,0,0-.94-13.86c-.56-1.71-1-2.73-1-2.77a2.5,2.5,0,0,1,.42.68,16.18,16.18,0,0,1,.88,2,24.28,24.28,0,0,1,.95,14.06,16.89,16.89,0,0,1-.61,2.07C412,252.4,411.85,252.65,411.81,252.64Z"/><path class="cls-7" d="M400.26,250.06a71.91,71.91,0,0,1-.8-8.54,72.29,72.29,0,0,1-.3-8.58,68,68,0,0,1,.81,8.54A72.29,72.29,0,0,1,400.26,250.06Z"/><path class="cls-7" d="M364.65,238.78a29.93,29.93,0,0,1-7.71,1.81,16.19,16.19,0,0,1,3.8-1.15A15.25,15.25,0,0,1,364.65,238.78Z"/><path class="cls-7" d="M376.3,254.13a10.47,10.47,0,0,1-2.32.62c-1.45.3-3.46.64-5.71.91s-4.29.39-5.77.43a9.63,9.63,0,0,1-2.4-.06,13.59,13.59,0,0,1,2.38-.3c1.47-.13,3.5-.32,5.73-.58s4.25-.55,5.71-.76A12.66,12.66,0,0,1,376.3,254.13Z"/><path class="cls-7" d="M380,267.44c0,.07-1-.43-2.52-1A21.05,21.05,0,0,0,364.7,266c-1.6.45-2.54.87-2.58.79s.21-.16.63-.38a14.11,14.11,0,0,1,1.85-.76,19,19,0,0,1,6.53-.91,18.69,18.69,0,0,1,6.43,1.41,12,12,0,0,1,1.79.9A2.63,2.63,0,0,1,380,267.44Z"/><path class="cls-7" d="M374,284c-.09,0-.24-1-.89-2.57a12.74,12.74,0,0,0-9.76-7.71c-1.65-.28-2.71-.18-2.71-.27a2,2,0,0,1,.73-.14,10.27,10.27,0,0,1,2,.05,12.19,12.19,0,0,1,10.05,7.93,10.67,10.67,0,0,1,.51,2A1.89,1.89,0,0,1,374,284Z"/><path class="cls-7" d="M385.52,244.72a30.16,30.16,0,0,1-5,3.93,30.73,30.73,0,0,1-5.4,3.3,53.32,53.32,0,0,1,5.11-3.72A55.09,55.09,0,0,1,385.52,244.72Z"/><path class="cls-7" d="M404.48,251a4.39,4.39,0,0,1-.71.65c-.48.39-1.19.94-2.08,1.59-1.79,1.32-4.32,3-7.22,4.77a80.75,80.75,0,0,1-7.63,4.09c-1,.48-1.82.84-2.39,1.08a4.18,4.18,0,0,1-.92.32,32,32,0,0,1,3.15-1.72c1.95-1,4.63-2.48,7.52-4.21s5.45-3.39,7.28-4.62A28,28,0,0,1,404.48,251Z"/><path class="cls-7" d="M412.08,262.65a3.54,3.54,0,0,1-.81.56c-.54.33-1.35.77-2.36,1.27a44.59,44.59,0,0,1-17.05,4.5,16.79,16.79,0,0,1-2.68,0,4.18,4.18,0,0,1-1-.08c0-.08,1.39-.12,3.64-.33a53.53,53.53,0,0,0,16.91-4.47C410.81,263.24,412,262.58,412.08,262.65Z"/><path class="cls-7" d="M440.35,255.07a7,7,0,0,1-1,.8c-.69.5-1.71,1.17-3,2a70.45,70.45,0,0,1-21.91,8.7c-1.48.31-2.69.52-3.53.63a6.4,6.4,0,0,1-1.31.13,5.66,5.66,0,0,1,1.27-.33c.83-.17,2-.43,3.49-.79a84.82,84.82,0,0,0,11.21-3.55,86.76,86.76,0,0,0,10.6-5.1c1.31-.75,2.36-1.37,3.08-1.82A6.46,6.46,0,0,1,440.35,255.07Z"/><path class="cls-7" d="M446.67,268.53a3.45,3.45,0,0,1-.5.35l-1.47.91c-.64.39-1.43.86-2.37,1.36s-2,1.1-3.22,1.67-2.53,1.23-4,1.83-3,1.23-4.69,1.86a97,97,0,0,1-11.1,3.2,95.78,95.78,0,0,1-11.43,1.71c-1.78.12-3.46.26-5,.27h-4.4c-1.35,0-2.55-.12-3.61-.18s-2-.16-2.73-.25l-1.71-.22a2.44,2.44,0,0,1-.6-.11,3.11,3.11,0,0,1,.61,0l1.72.12c.75.06,1.66.13,2.72.16s2.27.12,3.61.1,2.8,0,4.38-.06,3.24-.18,5-.31a91.5,91.5,0,0,0,22.41-4.89c1.66-.61,3.24-1.17,4.68-1.8s2.79-1.2,4-1.77,2.28-1.12,3.23-1.6,1.76-.91,2.41-1.28l1.52-.82A2.2,2.2,0,0,1,446.67,268.53Z"/><path class="cls-7" d="M454.66,283.64a2.71,2.71,0,0,1-.63.13l-1.83.26-6.73.86c-5.69.69-13.56,1.56-22.26,2.41s-16.6,1.49-22.32,1.91l-6.77.45-1.85.09a3.42,3.42,0,0,1-.64,0,2.76,2.76,0,0,1,.64-.1l1.83-.19,6.76-.61,22.3-2.06,22.27-2.26,6.75-.7,1.84-.17A2.74,2.74,0,0,1,454.66,283.64Z"/><path class="cls-7" d="M298.63,259.06H282.19s-6,.95-6.13,5.81h11.73l13.1-2.85Z"/><path class="cls-7" d="M300.1,268.34l-11.63-3L276.3,267s.27,5,6.1,5.28,17.93-.15,17.93-.15Z"/><path class="cls-5" d="M352.2,243.67,302,259.48v11.76L350.29,284l1.91-5.83L307.36,267.8c-1.77-.65-2-1.37-2.1-3-.1-2.65,3.26-3.08,3.26-3.08L354.86,247l2.06-4.16Z"/><g class="cls-6"><path d="M352.2,243.67,302,259.48v11.76L350.29,284l1.91-5.83L307.36,267.8c-1.77-.65-2-1.37-2.1-3-.1-2.65,3.26-3.08,3.26-3.08L354.86,247l2.06-4.16Z"/></g><path class="cls-5" d="M308.51,267.71H307.1a2.79,2.79,0,0,1-1.84-2.89c.08-2.8,3-2.8,3-2.8a2.26,2.26,0,0,0,0-4.52h-7.4a2.26,2.26,0,0,0,0,4.52H302v5.69h-.86a2.27,2.27,0,0,0,0,4.53h7.4a2.27,2.27,0,0,0,0-4.53Z"/><circle class="cls-7" cx="301.64" cy="270.19" r="0.96"/><path class="cls-7" d="M302.26,259.68a1,1,0,1,1-1-1A1,1,0,0,1,302.26,259.68Z"/><path class="cls-8" d="M285.55,274.21h0a2.91,2.91,0,0,1-2.91-2.91h0V260.4a2.9,2.9,0,0,1,2.9-2.9h0a2.9,2.9,0,0,1,2.9,2.9v10.9a2.9,2.9,0,0,1-2.89,2.91Z"/><path class="cls-7" d="M286.33,260.64a1,1,0,1,1-1-1A1,1,0,0,1,286.33,260.64Z"/><circle class="cls-7" cx="285.55" cy="271.3" r="1.01"/><path class="cls-5" d="M445.38,436.93l5.28,17.16s-16,9.87-15.31,13.14l34-7.79-7.14-27.08Z"/><g class="cls-15"><path class="cls-1" d="M460.67,449.83a1.44,1.44,0,0,1,1.38,1.32,1.38,1.38,0,0,1-1.29,1.37,1.51,1.51,0,0,1-1.45-1.4,1.42,1.42,0,0,1,1.5-1.28"/></g><g class="cls-15"><path class="cls-1" d="M469.31,459.44l-.72-2.73-32.53,8.66a2.42,2.42,0,0,0-.83,2.14Z"/></g><path class="cls-7" d="M450.07,454.07c.05.16.89,0,1.84.32s1.57.89,1.7.78-.36-1-1.52-1.34S450,453.93,450.07,454.07Z"/><path class="cls-7" d="M446.94,456.48c0,.17.79.25,1.53.8s1.11,1.23,1.27,1.18,0-1-.92-1.67S446.9,456.32,446.94,456.48Z"/><path class="cls-7" d="M446.07,461.24c.16,0,.17-.89-.5-1.68s-1.53-.93-1.56-.78.57.51,1.11,1.17S445.9,461.27,446.07,461.24Z"/><path class="cls-7" d="M449.3,450c.11.13.8-.3,1.75-.48s1.75-.09,1.8-.26-.81-.56-1.92-.32S449.19,449.91,449.3,450Z"/><g class="cls-6"><polygon points="449.48 450.24 450.41 453.3 465.95 446.72 465.31 444.28 449.48 450.24"/></g><path class="cls-7" d="M448.3,446.54a3.13,3.13,0,0,0,1.68-.46,7.94,7.94,0,0,0,1.62-1,8.6,8.6,0,0,0,.83-.77,2.11,2.11,0,0,0,.4-.53.75.75,0,0,0-.16-.9.93.93,0,0,0-.82-.18,1.94,1.94,0,0,0-.61.26,6.55,6.55,0,0,0-2.24,2c-.58.93-.69,1.61-.62,1.63s.33-.58,1-1.39a6.89,6.89,0,0,1,1.28-1.25,6.23,6.23,0,0,1,.88-.56c.34-.19.64-.28.77-.14s.06.07,0,.2a2.25,2.25,0,0,1-.3.39q-.37.4-.75.75a11.55,11.55,0,0,1-1.46,1.06A11.11,11.11,0,0,0,448.3,446.54Z"/><path class="cls-7" d="M448.58,446.72a2.9,2.9,0,0,0,0-1.75,5.55,5.55,0,0,0-1.43-2.69,1.43,1.43,0,0,0-1.3-.56.84.84,0,0,0-.58.66,2.43,2.43,0,0,0,0,.66,4.07,4.07,0,0,0,1.5,2.69c.89.69,1.63.7,1.63.64a12.2,12.2,0,0,1-1.36-1,4.15,4.15,0,0,1-1-1.44,3.82,3.82,0,0,1-.23-1c0-.37,0-.7.16-.7a1,1,0,0,1,.74.4,5.61,5.61,0,0,1,.66.8,6.71,6.71,0,0,1,.78,1.59C448.49,446.06,448.48,446.72,448.58,446.72Z"/><path class="cls-5" d="M381.26,435.5l2.19,17.82s-17.48,6.91-17.39,10.24l34.8-1.7L398.59,434Z"/><g class="cls-15"><path class="cls-1" d="M394.05,450.89a1.41,1.41,0,0,1,1.12,1.53,1.36,1.36,0,0,1-1.51,1.12,1.5,1.5,0,0,1-1.18-1.63,1.42,1.42,0,0,1,1.7-1"/></g><g class="cls-15"><path class="cls-1" d="M400.86,461.86l-.23-2.81-33.55,2.81a2.42,2.42,0,0,0-1.19,2Z"/></g><path class="cls-7" d="M382.87,453.19c0,.17.87.17,1.75.65s1.39,1.14,1.54,1.06-.19-1-1.26-1.59S382.82,453,382.87,453.19Z"/><path class="cls-7" d="M379.36,455c0,.17.73.4,1.37,1.06s.87,1.41,1,1.39.19-1-.62-1.8S379.35,454.85,379.36,455Z"/><path class="cls-7" d="M377.67,459.55c.15,0,.32-.85-.2-1.74s-1.34-1.19-1.4-1,.48.6.89,1.34S377.5,459.55,377.67,459.55Z"/><path class="cls-7" d="M382.82,449.08c.08.14.84-.16,1.81-.18s1.73.22,1.81.07-.7-.69-1.83-.66S382.73,449,382.82,449.08Z"/><g class="cls-6"><polygon points="382.95 449.13 383.34 452.31 399.79 448.56 399.55 445.62 382.95 449.13"/></g><path class="cls-7" d="M382.44,445.47a3.23,3.23,0,0,0,1.74-.16,7.53,7.53,0,0,0,1.77-.71,7.93,7.93,0,0,0,1-.62,2.56,2.56,0,0,0,.48-.45.71.71,0,0,0,0-.91,1,1,0,0,0-.77-.33,2.45,2.45,0,0,0-.65.15,7.52,7.52,0,0,0-1,.46,6.1,6.1,0,0,0-1.52,1.2c-.74.81-1,1.47-.9,1.5s.43-.52,1.2-1.21a6.69,6.69,0,0,1,1.47-1,7.19,7.19,0,0,1,1-.4c.36-.13.68-.16.78,0s0,.08,0,.2a2.24,2.24,0,0,1-.36.33,8.42,8.42,0,0,1-.87.6,8.76,8.76,0,0,1-1.63.79A13.55,13.55,0,0,0,382.44,445.47Z"/><path class="cls-7" d="M382.69,445.7A2.86,2.86,0,0,0,383,444a5.81,5.81,0,0,0-.4-1.89,4.83,4.83,0,0,0-.54-1,1.43,1.43,0,0,0-1.18-.78.76.76,0,0,0-.68.54,2.49,2.49,0,0,0-.13.66,4,4,0,0,0,1,2.9c.76.84,1.48,1,1.49.92a8.21,8.21,0,0,1-1.16-1.18,3.9,3.9,0,0,1-.69-1.59,3.37,3.37,0,0,1-.06-1c0-.37.14-.68.28-.65a1.24,1.24,0,0,1,.65.51,5.48,5.48,0,0,1,.52.91,6.24,6.24,0,0,1,.48,1.7C382.72,445,382.59,445.68,382.69,445.7Z"/><path class="cls-8" d="M466.7,434.4l-.76-3.57-12.77-64.58,3.67-56.4-3.67-22.09-33.92,1.8h0l-24.35,1.29s-20.47,71-21.82,74.71,6.27,84.38,6.27,84.38l21.51-4.6-.25-75L420,326.48l7.64,51.94,19,72.92,19.74-7.46-.57-4.06Z"/><path class="cls-7" d="M414.11,298.07c.06,0,1.49,6.63,3.21,14.83s3.06,14.87,3,14.88-1.49-6.63-3.21-14.84S414.05,298.08,414.11,298.07Z"/><path class="cls-7" d="M453,297a10,10,0,0,1-2.7.68,12.56,12.56,0,0,1-11.77-5.25,9.51,9.51,0,0,1-1.3-2.46,5.19,5.19,0,0,1,.35.66,14.39,14.39,0,0,0,1.07,1.71,12.64,12.64,0,0,0,11.63,5.16,13.76,13.76,0,0,0,2-.36A6.1,6.1,0,0,1,453,297Z"/><path class="cls-7" d="M453,365.27c.05,0-1,3.8-2.36,8.45s-2.51,8.4-2.57,8.39,1-3.8,2.37-8.45S453,365.25,453,365.27Z"/><path class="cls-7" d="M401,368.16a4.68,4.68,0,0,1-.3.54l-.91,1.43c-.77,1.2-1.88,2.83-3.16,4.59s-2.5,3.32-3.4,4.43l-1.08,1.3a6,6,0,0,1-.42.46,4.67,4.67,0,0,1,.36-.51l1-1.34c.87-1.13,2.06-2.7,3.34-4.46s2.4-3.37,3.21-4.55l1-1.39A5.74,5.74,0,0,1,401,368.16Z"/><path class="cls-7" d="M396.41,446.29V445c0-.88,0-2.19-.05-3.83,0-3.37-.1-8.18-.17-14.11-.12-11.95-.28-28.39-.46-46.56,0-1.59,0-3.17-.05-4.65h0a186.37,186.37,0,0,1,8.13-22.58c2.87-6.77,5.59-12.76,7.8-17.8s3.94-9.14,5.06-12c.58-1.41,1-2.53,1.28-3.28s.45-1.14.45-1.14-.55,1.59-1.66,4.45-2.8,7-5,12-4.9,11.05-7.76,17.82a191.79,191.79,0,0,0-8.1,22.56h0v4.65c.16,18.17.3,34.61.41,46.56,0,5.93.07,10.74.1,14.11V445C396.39,445.89,396.41,446.29,396.41,446.29Z"/><path class="cls-7" d="M400.47,290.32A8.46,8.46,0,0,1,401,293a10.65,10.65,0,0,1-6.52,10.32,8.31,8.31,0,0,1-2.58.7l.69-.18a12.82,12.82,0,0,0,1.83-.65A10.78,10.78,0,0,0,400.8,293a11.27,11.27,0,0,0-.2-1.92A4.83,4.83,0,0,1,400.47,290.32Z"/><path class="cls-7" d="M416.81,293.14a1.08,1.08,0,0,1,.5-.15,2,2,0,0,1,1.36.38,1.81,1.81,0,0,1,.75,1.91,2.15,2.15,0,0,1-1.9,1.65,2.2,2.2,0,0,1-2.06-1.44,2,2,0,0,1,.4-2,2.3,2.3,0,0,1,1.22-.73,1.14,1.14,0,0,1,.52,0,2.06,2.06,0,0,0-.5.09,2.31,2.31,0,0,0-1.12.74,1.85,1.85,0,0,0-.34,1.87,1.86,1.86,0,0,0,3.59-.18,1.65,1.65,0,0,0-.65-1.75,2,2,0,0,0-1.27-.42A4.19,4.19,0,0,0,416.81,293.14Z"/><path class="cls-13" d="M384.72,233s-8.4-.88-10.1-.88-13.54,2.37-13.54,2.37-7.08,7-7,9.12l2.84-.46s-2.58,4.34-2.54,5.39-.27,2.35,1.24,2.67c2.63.56,3.8-2.41,3.8-2.41s-.27,1.46.79,1.71c1.57.37,3.41-.92,3.41-.92s.14,1.35,1.31,1.54a5.13,5.13,0,0,0,3.81-1.34,3,3,0,0,0,3.16-.07c1.7-1,3.81-4.73,3.81-4.73l2.23-.52,7.88,2.16Z"/><path class="cls-14" d="M362.22,244.25a17.17,17.17,0,0,1-3.19,5,8.71,8.71,0,0,1,1.38-2.63A8.54,8.54,0,0,1,362.22,244.25Z"/><path class="cls-14" d="M366.67,246.52c.11.08-.41,1-1.31,1.85s-1.79,1.39-1.87,1.28.65-.79,1.51-1.64S366.55,246.43,366.67,246.52Z"/><path class="cls-14" d="M370.31,247.45c.13.05-.05.78-.6,1.51s-1.19,1.11-1.28,1,.37-.64.87-1.31S370.17,247.39,370.31,247.45Z"/><path class="cls-14" d="M359.77,239.27c.06.06-.34.49-.88,1.24s-1.25,1.83-2,3.05c-1.43,2.47-2.39,4.58-2.52,4.52a15.82,15.82,0,0,1,2.07-4.77,19.17,19.17,0,0,1,2.13-3C359.24,239.57,359.73,239.23,359.77,239.27Z"/><path class="cls-13" d="M358.42,276.69a9.93,9.93,0,0,1,4,1,4.42,4.42,0,0,1,2.4,3.22A2.86,2.86,0,0,1,362.7,284a3.37,3.37,0,0,1-2.74-1,5.86,5.86,0,0,1-1.41-6.32"/><path class="cls-13" d="M359.55,278.06s-1-3.07-5.94-3c0,0-3.55.07-4,.41s-1.37,1.64-1.23,2.18a5.66,5.66,0,0,0,3.41,2.67c1.44.13,2.32-.07,2.66-.55S359.55,278.06,359.55,278.06Z"/><path class="cls-14" d="M351.53,275.87c0-.06.43,0,1.06.29a3.3,3.3,0,0,1,1.92,1.9,1.85,1.85,0,0,1-1,2.41h0a1.28,1.28,0,0,1-1.13,0,2.24,2.24,0,0,0,1-.3,1.57,1.57,0,0,0,.74-1.93,3.54,3.54,0,0,0-1.61-1.74C351.86,276.15,351.5,275.94,351.53,275.87Z"/><path class="cls-14" d="M353.7,277.24c-.15,0-.27-.31-.43-.67s-.31-.66-.21-.76.48.1.68.56S353.83,277.24,353.7,277.24Z"/><path class="cls-13" d="M351.76,280.09a3.7,3.7,0,0,1,1.89-1c.71-.06,1.52.49,1.44,1.2a4,4,0,0,1,.86-1.91,1.9,1.9,0,0,1,1.9-.63,1.27,1.27,0,0,1,.84,1.59l0,.08a1.43,1.43,0,0,1,1.89-.75,1.45,1.45,0,0,1,.85,1.57,1.08,1.08,0,0,1,1.56-.67,2.45,2.45,0,0,1,1.14,1.56,7.47,7.47,0,0,1-2,8,3.41,3.41,0,0,1-1.75.86,1.72,1.72,0,0,1-1.69-.78,2,2,0,0,1-2.71.8,2,2,0,0,1-.7-.63,2.47,2.47,0,0,1-4.3-1.89,2.6,2.6,0,0,1-2.2.5,2,2,0,0,1-1-1.95,5.66,5.66,0,0,1,1.07-3.07A17,17,0,0,1,351,280.5"/><path class="cls-14" d="M355.07,289.45a19.79,19.79,0,0,0,2-2.65,11.29,11.29,0,0,0,1.38-7.81h0a1.47,1.47,0,0,0-.76-.86,1.55,1.55,0,0,0-2,.63,2.79,2.79,0,0,0-.31,1.09,9.77,9.77,0,0,1-.16,1.21,10,10,0,0,1-1.65,3.87,8.94,8.94,0,0,1-1.93,2.05,3.1,3.1,0,0,1-.88.55,15.19,15.19,0,0,0,2.51-2.8,10.35,10.35,0,0,0,1.49-3.75,11.12,11.12,0,0,0,.13-1.16,3.09,3.09,0,0,1,.37-1.3,1.86,1.86,0,0,1,1.11-.93,2.18,2.18,0,0,1,1.49.07,2,2,0,0,1,1,1.19h0a11.28,11.28,0,0,1-1.58,8.09,10.09,10.09,0,0,1-1.59,1.92A2.49,2.49,0,0,1,355.07,289.45Z"/><path class="cls-14" d="M358.77,279.26a.24.24,0,0,1,0-.26.88.88,0,0,1,.57-.41,2,2,0,0,1,1.1-.07,1.8,1.8,0,0,1,1.11,1h0a8.75,8.75,0,0,1,.5,3.83,8.52,8.52,0,0,1-1.9,4.66,4.23,4.23,0,0,1-1.57,1.37c-.05-.06.56-.57,1.28-1.59a9.13,9.13,0,0,0,1.68-4.49,9.55,9.55,0,0,0-.4-3.64h0a1.51,1.51,0,0,0-.83-.78,1.79,1.79,0,0,0-.92,0C358.83,278.91,358.78,279.25,358.77,279.26Z"/><path class="cls-14" d="M355.07,280.15a1.36,1.36,0,0,0-.76-.85c-.66-.29-1.68.24-2.63.94a28,28,0,0,0-3.06,3.1,7.35,7.35,0,0,1,2.75-3.52,6.69,6.69,0,0,1,1.57-.87,1.94,1.94,0,0,1,1.53,0,1.24,1.24,0,0,1,.65.8C355.17,280,355.1,280.16,355.07,280.15Z"/><path class="cls-14" d="M364.61,283.84c-.07,0-.15-.35-.25-.9a7,7,0,0,0-.63-2,2,2,0,0,0-1.48-1.17c-.51,0-.76.24-.82.19s.13-.46.8-.55a2.09,2.09,0,0,1,1.95,1.28,4.92,4.92,0,0,1,.54,2.23C364.73,283.48,364.68,283.83,364.61,283.84Z"/></g><text class="cls-16" transform="translate(86.22 176.5)">E<tspan class="cls-17" x="9.38" y="0">r</tspan><tspan class="cls-18" x="15.19" y="0">r</tspan><tspan x="20.93" y="0">eur</tspan></text><text class="cls-19" transform="translate(61.69 241.7)">Non au<tspan class="cls-20" x="52.91" y="0">t</tspan><tspan x="58.94" y="0">o</tspan><tspan class="cls-21" x="68.26" y="0">r</tspan><tspan x="74.44" y="0">is</tspan></text></svg>